<svg xmlns="http://www.w3.org/2000/svg" width="60.691" height="60.729" viewBox="0 0 60.691 60.729">
  <path id="fechar" d="M194.3,313.375c-.061.162-.13.322-.183.487a3.926,3.926,0,0,1-6.344,1.775c-.179-.155-.345-.325-.512-.492q-11.374-11.373-22.744-22.749a6.948,6.948,0,0,1-.479-.6c-.255.243-.424.4-.587.56Q152,303.808,140.543,315.269a3.938,3.938,0,0,1-5.987-5.117c.179-.21.379-.4.574-.6Q146.5,298.18,157.878,286.81a7.971,7.971,0,0,1,.686-.533,8.1,8.1,0,0,1-.727-.563q-11.441-11.431-22.874-22.87c-1.894-1.9-1.8-4.657.278-6.115a9.738,9.738,0,0,1,2.049-.839h.474a5.859,5.859,0,0,1,3.423,2.042q11.123,11.17,22.285,22.3c.151.151.309.294.558.53a7.137,7.137,0,0,1,.461-.568q11.121-11.129,22.24-22.262a5.842,5.842,0,0,1,3.422-2.043h.474a15.205,15.205,0,0,1,2.136.9,3.99,3.99,0,0,1,1.538,2.42v1.3a6.247,6.247,0,0,1-1.913,2.916q-11.2,11.164-22.376,22.353a3.844,3.844,0,0,1-.678.42c.363.308.539.437.692.591q11.206,11.2,22.415,22.4a6.058,6.058,0,0,1,1.86,2.882Z" transform="translate(-133.61 -255.89)" fill="#fff"/>
</svg>
