<svg xmlns="http://www.w3.org/2000/svg" width="84.241" height="84.246" viewBox="0 0 84.241 84.246">
  <g id="icone-produção" transform="translate(-765.673 -290.729)">
    <path id="Caminho_41" data-name="Caminho 41" d="M842.421,357.3a6.955,6.955,0,0,1-.809,1.309c-2.669,2.711-5.371,5.389-8.054,8.085a1.748,1.748,0,0,1-2.5.2c-2.19-1.484-4.412-2.923-6.6-4.415a1.422,1.422,0,0,0-1.617-.1c-1.617.751-3.3,1.347-4.926,2.09a1.784,1.784,0,0,0-.905,1.051c-.583,2.579-1.073,5.178-1.6,7.77-.27,1.326-.685,1.669-2.062,1.671q-5.594.011-11.187,0c-1.3,0-1.73-.36-1.989-1.623-.525-2.554-1.061-5.106-1.541-7.668a1.485,1.485,0,0,0-1.114-1.308c-1.644-.585-3.253-1.28-4.84-2.01a1.326,1.326,0,0,0-1.511.1c-2.151,1.476-4.331,2.909-6.509,4.344-1.25.823-1.752.762-2.829-.312q-3.842-3.832-7.675-7.674c-1.1-1.1-1.133-1.584-.248-2.921,1.42-2.144,2.828-4.3,4.281-6.418a1.336,1.336,0,0,0,.1-1.515c-.741-1.623-1.421-3.276-2.047-4.946a1.358,1.358,0,0,0-1.159-.994c-2.561-.486-5.113-1.019-7.666-1.54-1.377-.281-1.723-.671-1.727-2.015-.009-3.767.011-7.535-.012-11.3a1.723,1.723,0,0,1,1.578-1.934c2.6-.5,5.18-1.061,7.779-1.546a1.425,1.425,0,0,0,1.227-1.061c.62-1.673,1.385-3.291,2.008-4.963a1.77,1.77,0,0,0-.081-1.372c-1.392-2.206-2.865-4.36-4.3-6.537-.848-1.282-.807-1.784.24-2.834q3.871-3.883,7.754-7.753c1.026-1.023,1.551-1.083,2.741-.3,2.209,1.456,4.392,2.953,6.629,4.365a1.773,1.773,0,0,0,1.372.081c1.707-.632,3.4-1.323,5.051-2.079a1.785,1.785,0,0,0,.9-1.059c.583-2.579,1.072-5.178,1.6-7.77.271-1.329.683-1.67,2.062-1.673q5.593-.012,11.187,0c1.3,0,1.732.363,1.99,1.624.53,2.591,1.068,5.18,1.558,7.779a1.357,1.357,0,0,0,1,1.153c1.669.629,3.323,1.307,4.943,2.052a1.337,1.337,0,0,0,1.515-.1c2.123-1.451,4.273-2.861,6.414-4.285,1.329-.884,1.824-.848,2.922.247q3.842,3.832,7.672,7.676c1.071,1.075,1.128,1.589.307,2.831-1.438,2.177-2.872,4.357-4.346,6.509a1.339,1.339,0,0,0-.094,1.516c.741,1.623,1.422,3.275,2.048,4.946a1.352,1.352,0,0,0,1.162.989c2.6.49,5.186,1.028,7.776,1.558,1.256.257,1.614.689,1.617,2,.01,3.767-.01,7.535.011,11.3a1.728,1.728,0,0,1-1.578,1.936c-2.6.5-5.18,1.064-7.779,1.548a1.421,1.421,0,0,0-1.231,1.055c-.618,1.673-1.384,3.291-2.007,4.963a1.771,1.771,0,0,0,.081,1.373c1.393,2.2,2.87,4.356,4.3,6.536C841.961,356.34,842.148,356.782,842.421,357.3Zm-65.474-48.587c1.475,2.226,2.967,4.543,4.533,6.808a2.368,2.368,0,0,1,.114,2.682,56.618,56.618,0,0,0-2.62,6.269,2.658,2.658,0,0,1-2.273,2.084c-2.347.407-4.682.893-7.009,1.4-.334.074-.846.472-.851.728-.06,2.939-.038,5.88-.038,8.854.421.094.744.172,1.069.239,2.444.5,4.885,1.016,7.334,1.494a1.964,1.964,0,0,1,1.571,1.382c.953,2.418,1.962,4.816,3,7.2a1.972,1.972,0,0,1-.167,2.094c-.8,1.169-1.572,2.357-2.353,3.538-.794,1.2-1.586,2.4-2.308,3.5l6.7,6.716c2.263-1.5,4.6-3.026,6.906-4.6a2.224,2.224,0,0,1,2.485-.1,53.672,53.672,0,0,0,6.261,2.64,2.77,2.77,0,0,1,2.212,2.414c.386,2.313.875,4.611,1.381,6.9.074.334.472.847.728.852,2.938.06,5.878.038,8.842.038.1-.425.182-.748.249-1.074.5-2.445,1.011-4.888,1.489-7.337a1.966,1.966,0,0,1,1.386-1.569c2.418-.954,4.784-2.039,7.214-2.957a2.657,2.657,0,0,1,1.954.1c1.279.676,2.443,1.567,3.656,2.369s2.405,1.585,3.49,2.3l6.722-6.7c-1.5-2.267-3.027-4.607-4.6-6.913a2.231,2.231,0,0,1-.1-2.486,57.891,57.891,0,0,0,2.669-6.37,2.711,2.711,0,0,1,2.388-2.1c2.312-.4,4.6-.922,6.908-1.345.683-.125.906-.411.9-1.106q-.055-3.8.01-7.609c.014-.754-.246-1.021-.976-1.153-2.418-.438-4.815-.988-7.233-1.426a2.3,2.3,0,0,1-1.9-1.763,34.807,34.807,0,0,0-2.336-5.779,3.356,3.356,0,0,1,.268-4.237c1.469-1.95,2.729-4.057,4.016-6l-6.724-6.7c-2.222,1.474-4.537,2.969-6.8,4.533a2.366,2.366,0,0,1-2.681.107,55.406,55.406,0,0,0-6.269-2.618,2.654,2.654,0,0,1-2.08-2.276c-.407-2.348-.891-4.684-1.4-7.012-.073-.333-.474-.843-.732-.848-2.938-.06-5.878-.038-8.84-.038-.1.384-.178.669-.237.958-.508,2.481-1.027,4.96-1.509,7.447a1.962,1.962,0,0,1-1.381,1.572c-2.417.954-4.784,2.036-7.215,2.953a2.711,2.711,0,0,1-1.955-.1,31.8,31.8,0,0,1-3.187-2.062c-1.356-.9-2.713-1.794-3.967-2.623Z" transform="translate(0 0)" fill="#d7b13b"/>
    <path id="Caminho_42" data-name="Caminho 42" d="M877.553,380.952a21.579,21.579,0,1,1-21.495-21.5A21.581,21.581,0,0,1,877.553,380.952Zm-3.133.025a18.446,18.446,0,1,0-18.225,18.5A18.438,18.438,0,0,0,874.42,380.977Z" transform="translate(-48.181 -48.18)" fill="#d7b13b"/>
    <path id="Caminho_43" data-name="Caminho 43" d="M871.378,411.454a15.01,15.01,0,1,1,15.014-14.976A14.98,14.98,0,0,1,871.378,411.454Zm-11.869-14.968a11.875,11.875,0,1,0,11.832-11.918A11.856,11.856,0,0,0,859.509,396.486Z" transform="translate(-63.592 -63.594)" fill="#d7b13b"/>
  </g>
</svg>
