<svg xmlns="http://www.w3.org/2000/svg" width="87.573" height="109.478" viewBox="0 0 87.573 109.478">
  <g id="icone-criação-planejamento" transform="translate(-647.366 -258.735)">
    <path id="Caminho_30" data-name="Caminho 30" d="M726.67,404.482a10.446,10.446,0,0,1-5.111-2.46c-1.189-1.157-1.41-2.142-.592-3.034.757-.824,1.82-.721,3,.291,2.432,2.08,5.474,2.079,7.6-.057a18.2,18.2,0,0,0,1.489-2.026c-1.595,0-2.886,0-4.178,0-.962,0-1.927.038-2.886-.019a1.844,1.844,0,0,1-1.88-1.91,1.8,1.8,0,0,1,1.951-1.71c2.744-.027,5.489-.005,8.233-.019a4.872,4.872,0,0,0,1.264-.145,1.618,1.618,0,0,0,1.253-1.761,1.635,1.635,0,0,0-1.495-1.679c-.631-.087-1.282-.023-1.921-.067a1.9,1.9,0,0,1-2-1.815c-.011-1.063.792-1.764,2.076-1.825a13.37,13.37,0,0,0,2.016-.142,1.593,1.593,0,0,0,1.32-1.8,1.62,1.62,0,0,0-1.526-1.644c-.635-.073-1.282-.025-1.92-.075a1.885,1.885,0,0,1-1.963-1.842c.013-1.027.775-1.712,2-1.794.142-.009.285-.005.428-.007,2.712-.039,3.259-.675,2.967-3.573-.279-.027-.582-.077-.885-.083-.891-.017-1.784.023-2.672-.035a1.792,1.792,0,1,1-.029-3.584c1.457-.08,2.921-.039,4.382-.042,2.481-.005,2.934-.453,2.935-2.922,0-.677.034-1.357-.006-2.031a9.723,9.723,0,0,1,3.8-8.518,22.83,22.83,0,0,0,6.076-7.641c4.377-8.946,3.876-17.693-1.633-25.94a25.348,25.348,0,0,0-39.249-3.582,25.5,25.5,0,0,0,.455,36.114,2.873,2.873,0,0,0,.316.288c3.62,2.619,4.991,6.157,4.7,10.587-.222,3.448.138,3.644,3.554,3.644,2.78,0,5.56,0,8.34,0a5.726,5.726,0,0,1,1.271.118,1.765,1.765,0,0,1-.139,3.458,10.093,10.093,0,0,1-1.491.074c-2.594.007-5.187,0-7.928,0,0,.565-.015,1.014,0,1.462.061,1.484.693,2.143,2.175,2.187,1.282.038,2.566.009,3.849.011.927,0,1.854-.02,2.78.008,1.341.041,2.084.679,2.111,1.762.028,1.129-.737,1.851-2.118,1.876-2.031.037-4.063.008-6.095.014a7.382,7.382,0,0,0-1.172.064,1.642,1.642,0,0,0-1.473,1.7,1.591,1.591,0,0,0,1.276,1.738,8.482,8.482,0,0,0,1.8.145c1.889.017,3.778-.009,5.667.013,1.336.016,2.084.663,2.113,1.752.029,1.129-.747,1.859-2.117,1.881-2.067.033-4.134.007-6.2.012a6.121,6.121,0,0,0-1.066.051,1.781,1.781,0,0,0-.3,3.427,6.411,6.411,0,0,0,.83.2,1.792,1.792,0,0,1,1.54,2.072,1.814,1.814,0,0,1-2.1,1.522,5.456,5.456,0,0,1-4.259-8.372c.152-.237.321-.464.475-.685-1.8-3.185-1.8-4.544.028-7.4-1.278-1.427-1.448-3.206-1.427-5.06a1.3,1.3,0,0,0-.581-.95,5.658,5.658,0,0,1-3.039-5.163c-.019-1.1-.043-2.211,0-3.314a5.9,5.9,0,0,0-2.193-4.986,30,30,0,0,1-5.966-6.8,28.422,28.422,0,0,1-4.4-18.453,28.089,28.089,0,0,1,13.372-21.78,27.509,27.509,0,0,1,25.769-2.648c9.759,3.763,15.928,10.938,18.295,21.133a27.3,27.3,0,0,1-4.192,22.217,40,40,0,0,1-5.37,6.044,6.806,6.806,0,0,0-2.448,5.537c.065,1.065.037,2.139,0,3.207a5.388,5.388,0,0,1-3,4.94,1.062,1.062,0,0,0-.647,1.172,6.492,6.492,0,0,1-1.407,4.914,5.585,5.585,0,0,1,.01,7.348,5.659,5.659,0,0,1,1.28,4.556,5.383,5.383,0,0,1-3.036,4.005,1.643,1.643,0,0,0-.8.863,8.978,8.978,0,0,1-7.178,6.807,1.648,1.648,0,0,0-.369.187Z" transform="translate(-36.587 -36.269)" fill="#d7b13b"/>
    <path id="Caminho_31" data-name="Caminho 31" d="M757.623,397.423h3.816c0-1.477-.079-2.933.016-4.377a7.165,7.165,0,0,1,7-6.5,7.283,7.283,0,1,1,.093,14.562c-1.132.032-2.266,0-3.529,0v1.342q0,8.874-.006,17.747a5.878,5.878,0,0,1-.137,1.481,1.766,1.766,0,0,1-3.415-.093,6.6,6.6,0,0,1-.1-1.381q-.009-8.874,0-17.747v-1.3H757.7v1.277q0,8.82,0,17.64c0,2.046-.555,2.908-1.854,2.885-1.254-.021-1.8-.885-1.8-2.844q0-8.82,0-17.64v-1.368c-1.28,0-2.448.043-3.612-.008a7.085,7.085,0,0,1-6.709-4.469,6.972,6.972,0,0,1,1.267-7.67,7.232,7.232,0,0,1,7.689-2.061,7.1,7.1,0,0,1,4.934,6.224C757.695,394.539,757.623,395.959,757.623,397.423Zm-3.6.018c0-1.334.047-2.544-.011-3.751a3.545,3.545,0,0,0-3.572-3.5,3.625,3.625,0,0,0-.382,7.234C751.323,397.531,752.607,397.441,754.022,397.441Zm11.067.115a35.434,35.434,0,0,0,4.573-.3,3.43,3.43,0,0,0,2.593-3.888,3.587,3.587,0,0,0-3.467-3.173,3.478,3.478,0,0,0-3.669,2.907A44.373,44.373,0,0,0,765.089,397.556Z" transform="translate(-68.376 -91.294)" fill="#d7b13b"/>
    <path id="Caminho_32" data-name="Caminho 32" d="M797.839,264.248c0,1.1.03,2.2-.008,3.3-.045,1.318-.721,2.067-1.8,2.079s-1.814-.738-1.837-2.035q-.061-3.408,0-6.818a1.84,1.84,0,0,1,1.844-2.042c1.055.021,1.745.8,1.789,2.1C797.869,261.975,797.839,263.112,797.839,264.248Z" transform="translate(-104.86)" fill="#d7b13b"/>
    <path id="Caminho_33" data-name="Caminho 33" d="M857.048,288.336c-1.6-.089-2.467-1.407-1.847-2.583,1.174-2.23,2.457-4.4,3.772-6.555a1.712,1.712,0,0,1,2.432-.553,1.746,1.746,0,0,1,.645,2.339c-1.213,2.21-2.475,4.4-3.806,6.536C857.967,287.964,857.3,288.168,857.048,288.336Z" transform="translate(-148.313 -14.016)" fill="#d7b13b"/>
    <path id="Caminho_34" data-name="Caminho 34" d="M668.532,331.594a11.787,11.787,0,0,1,1.44.553c1.949,1.1,3.884,2.232,5.822,3.356a1.859,1.859,0,0,1,1.082,2.2,1.7,1.7,0,0,1-2.45,1.136c-2.257-1.2-4.463-2.5-6.654-3.823a1.523,1.523,0,0,1-.6-2.064A6.019,6.019,0,0,1,668.532,331.594Z" transform="translate(-14.014 -52.043)" fill="#d7b13b"/>
    <path id="Caminho_35" data-name="Caminho 35" d="M728.128,286.388a1.8,1.8,0,0,1-3.4.892c-1.2-2.016-2.354-4.059-3.52-6.1a2.4,2.4,0,0,1-.227-.594,1.664,1.664,0,0,1,.815-2.008,1.54,1.54,0,0,1,2.2.369c1.413,2.256,2.706,4.587,4.032,6.9A1.5,1.5,0,0,1,728.128,286.388Z" transform="translate(-52.528 -13.968)" fill="#d7b13b"/>
    <path id="Caminho_36" data-name="Caminho 36" d="M907.677,331.384c.51.472,1.191.856,1.489,1.436a1.589,1.589,0,0,1-.695,2.13c-1.08.685-2.2,1.3-3.311,1.943-1.016.587-2.02,1.2-3.06,1.737a1.779,1.779,0,0,1-2.434-.6,1.718,1.718,0,0,1,.545-2.437c2.15-1.318,4.357-2.543,6.548-3.793a3.345,3.345,0,0,1,.707-.219Z" transform="translate(-180.014 -51.893)" fill="#d7b13b"/>
    <path id="Caminho_37" data-name="Caminho 37" d="M668.581,473.821a5.781,5.781,0,0,1-1.4-1.3,1.54,1.54,0,0,1,.549-2.077c.787-.545,1.63-1.009,2.457-1.494,1.227-.719,2.454-1.436,3.694-2.132,1.185-.665,2.241-.481,2.8.455.576.959.247,1.97-.933,2.668q-2.844,1.684-5.725,3.307A12.591,12.591,0,0,1,668.581,473.821Z" transform="translate(-14.011 -148.354)" fill="#d7b13b"/>
    <path id="Caminho_38" data-name="Caminho 38" d="M909.225,471.383c-.009,1.614-1.283,2.547-2.469,1.93-2.3-1.2-4.528-2.526-6.733-3.887a1.761,1.761,0,0,1,1.718-3.038c2.313,1.242,4.579,2.575,6.817,3.947C908.946,470.572,909.1,471.181,909.225,471.383Z" transform="translate(-179.938 -148.186)" fill="#d7b13b"/>
    <path id="Caminho_39" data-name="Caminho 39" d="M652.814,409.14c-1.172,0-2.345.028-3.516-.01a1.8,1.8,0,1,1-.135-3.6c2.448-.069,4.9-.072,7.349,0a1.715,1.715,0,0,1,1.742,1.888,1.758,1.758,0,0,1-1.925,1.708C655.159,409.17,653.986,409.142,652.814,409.14Z" transform="translate(0 -104.821)" fill="#d7b13b"/>
    <path id="Caminho_40" data-name="Caminho 40" d="M921.176,409.128c-1.172,0-2.345.03-3.516-.009a1.749,1.749,0,0,1-1.894-1.736,1.731,1.731,0,0,1,1.775-1.864c2.413-.072,4.831-.069,7.244-.008a1.809,1.809,0,1,1-.092,3.61C923.521,409.156,922.348,409.128,921.176,409.128Z" transform="translate(-191.717 -104.809)" fill="#d7b13b"/>
  </g>
</svg>
