<svg xmlns="http://www.w3.org/2000/svg" width="96.534" height="96.593" viewBox="0 0 96.534 96.593">
  <g id="icone-gestão-acompanhamento" transform="translate(-657.072 -235.599)">
    <path id="Caminho_50" data-name="Caminho 50" d="M678.845,304.32l-10.08,7.751a6.921,6.921,0,0,1,.581,4.34,6.213,6.213,0,1,1-11.9-3.467,6.148,6.148,0,0,1,8.273-3.559,1.475,1.475,0,0,0,1.781-.244q5.252-4.1,10.566-8.129a1.769,1.769,0,0,0,.8-1.6q-.032-27.068-.014-54.136a9.325,9.325,0,0,1,8.161-9.588,10.865,10.865,0,0,1,1.649-.081q16.643-.006,33.286,0c5.858,0,9.844,3.979,9.846,9.832q.007,28.626,0,57.252v1.293l10.081-7.752a6.918,6.918,0,0,1-.582-4.341,6.231,6.231,0,1,1,11.96,3.423,6.118,6.118,0,0,1-8.315,3.609,1.476,1.476,0,0,0-1.782.227q-5.328,4.166-10.717,8.252a1.508,1.508,0,0,0-.656,1.378c.023,4.544.018,9.088.011,13.632a9.351,9.351,0,0,1-9.8,9.783q-16.643.009-33.286,0c-5.853,0-9.853-3.988-9.859-9.822q-.008-8.374,0-16.747ZM682,297.956c1.031-.794,1.88-1.5,2.786-2.124a1.03,1.03,0,0,0,.479-1.276A6.189,6.189,0,0,1,694,287.647a6.115,6.115,0,0,1,3.554,5.611,1.769,1.769,0,0,0,.56,1.185c5.761,4.479,11.555,8.917,17.325,13.384a.951.951,0,0,0,1.195.083,6.045,6.045,0,0,1,7.212,1.329,2.73,2.73,0,0,1,.33.6c1.362-1.045,2.492-1.971,3.686-2.8a1.8,1.8,0,0,0,.835-1.682q-.031-29.89-.017-59.781c0-.325.005-.65-.013-.973a6.266,6.266,0,0,0-4.8-5.692,1.306,1.306,0,0,0-1.377.4c-1.6,1.656-3.211,3.307-4.9,4.873a2.911,2.911,0,0,1-1.786.739q-10.461.076-20.924,0a3.061,3.061,0,0,1-1.867-.773c-1.624-1.491-3.179-3.062-4.687-4.671a1.632,1.632,0,0,0-1.885-.483,6.224,6.224,0,0,0-4.477,6.044q-.015,26.093,0,52.186C681.96,297.4,681.978,297.586,682,297.956Zm9.307,31.2c0-.716-.01-1.2,0-1.687a4.621,4.621,0,0,1,4.576-4.611q9.435-.05,18.871,0a4.624,4.624,0,0,1,4.576,4.612c.013.508,0,1.017,0,1.606,1.008,0,1.908,0,2.809,0a6.232,6.232,0,0,0,6.534-6.547c.01-3.763,0-7.526,0-11.288v-.911c-.928.7-1.677,1.31-2.466,1.859a1.431,1.431,0,0,0-.675,1.364,6.214,6.214,0,1,1-11.678-3.025L696.3,297.017c-2.241,2.544-5.6,3.514-9.163.92-1.6,1.231-3.224,2.46-4.816,3.731a1.165,1.165,0,0,0-.348.815c-.017,6.877-.042,13.754.008,20.63a5.951,5.951,0,0,0,4.786,5.749A36.74,36.74,0,0,0,691.3,329.153Zm.676-90.389c1.029,1.02,1.887,1.9,2.79,2.739a1.363,1.363,0,0,0,.853.315q9.683.026,19.366,0a1.281,1.281,0,0,0,.8-.228c.954-.853,1.867-1.751,2.8-2.633l-.152-.2Zm2.44,90.249h21.8c0-.509.018-.959,0-1.406a1.535,1.535,0,0,0-1.654-1.639q-9.233-.023-18.466,0a1.534,1.534,0,0,0-1.67,1.621C694.4,328.037,694.42,328.489,694.42,329.013Zm56.054-35.728a3.11,3.11,0,1,0-3.128,3.068A3.123,3.123,0,0,0,750.473,293.285ZM663.31,318.164a3.111,3.111,0,1,0-3.148-3.049A3.133,3.133,0,0,0,663.31,318.164Zm31.1-24.889a3.11,3.11,0,1,0-3.12,3.076A3.136,3.136,0,0,0,694.412,293.275Zm24.909,17.107a3.11,3.11,0,1,0,3.121,3.077A3.117,3.117,0,0,0,719.321,310.382Z" transform="translate(0 0)" fill="#d7b13b"/>
    <path id="Caminho_51" data-name="Caminho 51" d="M789.809,347.236h3.115v-1.081q0-7.738,0-15.476c0-1.6.5-2.091,2.088-2.094q2.627-.005,5.254,0c1.465.005,2,.53,2,1.99,0,5.515,0,11.03,0,16.652h3.048v3.113H764.94v-3.029h3.067v-1.141q0-9.247,0-18.494c0-1.737.461-2.2,2.171-2.207q2.481,0,4.962,0c1.736,0,2.209.464,2.209,2.171q0,9.247,0,18.494v1.1h3.115v-1.015q0-6.23,0-12.459c0-1.534.512-2.049,2.031-2.053q2.627-.008,5.254,0c1.533,0,2.054.515,2.055,2.031q.007,6.181,0,12.362ZM771.188,328.63V347.2h3V328.63Zm24.922,3.111v15.49H799.1V331.74Zm-12.463,3.121V347.2h3v-12.34Z" transform="translate(-79.819 -66.5)" fill="#d7b13b"/>
  </g>
</svg>
