<svg xmlns="http://www.w3.org/2000/svg" width="108.136" height="68.409" viewBox="0 0 108.136 68.409">
  <g id="icone-logistica" transform="translate(-763 -306.102)">
    <path id="Caminho_44" data-name="Caminho 44" d="M763,354.247a2.228,2.228,0,0,1,2.159-1.207c5.1.022,10.206.01,15.309.011a4.376,4.376,0,0,1,.527.019,1.712,1.712,0,0,1,1.636,1.734,1.647,1.647,0,0,1-1.737,1.61c-2.005.034-4.012.014-6.018.016h-1.21V360.3h3.5c1.83,0,3.661-.023,5.49.013a1.012,1.012,0,0,0,1.09-.721c1.95-4.191,5.263-6.513,9.882-6.5,4.567.017,7.863,2.306,9.792,6.468a1.034,1.034,0,0,0,1.079.748q16.841-.028,33.681-.017c.171,0,.342-.026.659-.052V359.1c0-3.7-.04-7.392.038-11.085a2.742,2.742,0,0,1,.84-1.881c1.047-.838,2.479.085,2.5,1.549.03,2.569.009,5.138.01,7.708,0,1.337-.019,2.675.015,4.012a3.047,3.047,0,0,0,.312.883c.256-.228.62-.405.752-.69a10.721,10.721,0,0,1,19.613-.224,1.311,1.311,0,0,0,1.48.955c1.077-.077,2.163-.019,3.3-.019v-7.5c-.729,0-1.424.027-2.116,0a5.21,5.21,0,0,1-5.026-5.114c-.034-1.2-.028-2.393-.006-3.589a1.69,1.69,0,0,1,1.91-1.875c1.61-.024,3.22-.006,4.845-.006a4.781,4.781,0,0,0-4.367-3.75c-6.855-.1-13.713-.036-20.715-.036,0,.629.019,1.215,0,1.8a1.674,1.674,0,0,1-1.591,1.761,1.707,1.707,0,0,1-1.776-1.7c-.026-.315-.009-.633-.009-.95v-29.8H773.593v1.269q0,14.254,0,28.507c0,.317.01.634-.008.95a1.678,1.678,0,0,1-1.624,1.73,1.716,1.716,0,0,1-1.737-1.638,8.882,8.882,0,0,1-.016-.949q0-14.517,0-29.035c0-2.967,1.289-4.268,4.224-4.268h63.561c2.971,0,4.225,1.258,4.228,4.237,0,.943,0,1.887,0,2.919.462.021.836.052,1.21.052,3.625,0,7.252.071,10.875-.015,4.6-.109,8.514,3.1,7.713,9.224-.073.561-.682,1.051-1.164,1.753.812,3.249,1.676,6.761,2.59,10.259a1.212,1.212,0,0,0,.755.683,8.918,8.918,0,0,1,6.928,8.941c.016,5.772.006,11.544,0,17.316,0,1.631-.578,2.2-2.241,2.206-1.612.009-3.224,0-4.928,0a10.962,10.962,0,0,1-4.465,8.749,10.42,10.42,0,0,1-6.935,2.057c-4.383-.237-9.7-3.518-10.167-10.718H804.353a10.838,10.838,0,0,1-4.8,8.9,10.275,10.275,0,0,1-6.905,1.792,10.851,10.851,0,0,1-9.835-10.736c-.322-.016-.657-.045-.993-.045-1.971,0-3.946-.086-5.912.015-4.434.229-6.013-.953-5.705-5.772.028-.451,0-.9,0-1.5-1.694,0-3.3-.044-4.911.016A2.3,2.3,0,0,1,763,355.3Zm96.929-19.276a2.226,2.226,0,0,0,0-.42c-.824-3.3-1.677-6.6-2.462-9.916-.163-.687-.557-.684-1.07-.683q-6.647.008-13.293.007a6.858,6.858,0,0,0-.8.094v10.918Zm-6.7,36.154a7.337,7.337,0,1,0-7.389-7.271A7.4,7.4,0,0,0,853.227,371.125Zm-59.639,0a7.337,7.337,0,1,0-7.341-7.312A7.374,7.374,0,0,0,793.589,371.125Zm65.053-50.63a3.617,3.617,0,0,0-3.78-3.778c-3.937-.032-7.874-.01-11.811-.007-.238,0-.475.036-.758.059V320.5Zm5.376,25.159c-.406,3.276.477,4.147,3.67,3.662v-3.662Z" transform="translate(0 0)" fill="#d7b13b"/>
    <path id="Caminho_45" data-name="Caminho 45" d="M882.776,379.244c1.8-1.81,3.55-3.579,5.309-5.342q4.662-4.67,9.334-9.331a3.78,3.78,0,0,1,.717-.616,1.67,1.67,0,0,1,2.284,2.288,4.1,4.1,0,0,1-.683.8q-7.686,7.695-15.38,15.382c-1.248,1.246-1.99,1.254-3.211.036-2.766-2.759-5.543-5.508-8.271-8.3a2.51,2.51,0,0,1-.791-1.608,2.238,2.238,0,0,1,1-1.436c.712-.468,1.415-.084,1.979.479q3.4,3.394,6.8,6.791C882.129,378.647,882.412,378.9,882.776,379.244Z" transform="translate(-78.307 -41.342)" fill="#d7b13b"/>
    <path id="Caminho_46" data-name="Caminho 46" d="M930.952,475.877q-5.912,0-11.824,0a6.924,6.924,0,0,1-1.053-.041,1.544,1.544,0,0,1-1.4-1.6,1.523,1.523,0,0,1,1.228-1.629,5.286,5.286,0,0,1,1.254-.107q11.824-.008,23.647,0c.141,0,.282,0,.422,0,1.309.033,2.106.686,2.1,1.717s-.778,1.655-2.126,1.658Q937.076,475.885,930.952,475.877Z" transform="translate(-110.317 -119.448)" fill="#d7b13b"/>
    <path id="Caminho_47" data-name="Caminho 47" d="M788.262,450.269q-5.17,0-10.339,0c-1.343,0-2.111-.614-2.12-1.661s.8-1.712,2.1-1.713q10.445-.01,20.89,0c1.281,0,2.1.714,2.073,1.741-.029,1.008-.789,1.628-2.049,1.631Q793.537,450.277,788.262,450.269Z" transform="translate(-9.191 -101.065)" fill="#d7b13b"/>
    <path id="Caminho_48" data-name="Caminho 48" d="M1077.252,501.663a3.5,3.5,0,1,1-6.989.093,3.5,3.5,0,0,1,6.989-.093Z" transform="translate(-220.571 -137.923)" fill="#d7b13b"/>
    <path id="Caminho_49" data-name="Caminho 49" d="M865.96,501.7a3.493,3.493,0,0,1-3.462,3.522,3.567,3.567,0,0,1-3.52-3.494,3.489,3.489,0,0,1,3.491-3.49A3.43,3.43,0,0,1,865.96,501.7Z" transform="translate(-68.898 -137.923)" fill="#d7b13b"/>
  </g>
</svg>
