<svg id="instagram" xmlns="http://www.w3.org/2000/svg" width="77.852" height="77.851" viewBox="0 0 77.852 77.851">
  <path id="Caminho_24" data-name="Caminho 24" d="M710,265.29c.2-1.5.329-3.012.613-4.495a38.344,38.344,0,0,1,20.053-27.576,36.089,36.089,0,0,1,19.889-4.508c14.609.9,25.559,7.835,32.7,20.6a35.647,35.647,0,0,1,4.52,19.884c-.9,14.64-7.86,25.586-20.652,32.749a36.034,36.034,0,0,1-15.339,4.425,4.137,4.137,0,0,0-.587.125H746.64a4.051,4.051,0,0,0-.587-.125,35.907,35.907,0,0,1-13.642-3.566c-11.937-5.885-19.243-15.37-21.8-28.457-.289-1.481-.413-2.994-.614-4.492Zm74.312,2.286a35.391,35.391,0,1,0-35.4,35.386A35.44,35.44,0,0,0,784.312,267.576Z" transform="translate(-710 -228.64)"/>
  <path id="Caminho_25" data-name="Caminho 25" d="M839.166,340.245c3.7,0,7.4-.1,11.09.027a6.868,6.868,0,0,1,6.553,6.56c.021.3.038.607.038.91q0,10.142.005,20.285c0,3.056-1.2,5.435-3.991,6.77a8.184,8.184,0,0,1-3.361.736c-6.887.065-13.776.057-20.664.024a7.02,7.02,0,0,1-7.342-7.377q-.042-10.294,0-20.588a7.042,7.042,0,0,1,7.417-7.383c3.418-.022,6.837,0,10.256,0Zm10.448,15.9a10.494,10.494,0,0,1-2.214,8.571,10.3,10.3,0,0,1-7.985,3.927,10.066,10.066,0,0,1-6.952-2.395,10.626,10.626,0,0,1-3.785-10.083H825.02v.665q0,5.66,0,11.321a3.552,3.552,0,0,0,3.868,3.876q10.257.008,20.514,0a3.559,3.559,0,0,0,3.907-3.913q.008-5.622,0-11.245c0-.24-.028-.48-.044-.724Zm-10.435-5.32a7.057,7.057,0,1,0,7.044,7.069A7.076,7.076,0,0,0,839.179,350.828Zm7.114-.07H851.5v-5.207h-5.207Z" transform="translate(-800.246 -318.955)"/>
</svg>
