<svg xmlns="http://www.w3.org/2000/svg" width="116.825" height="95.242" viewBox="0 0 116.825 95.242">
  <g id="logo-sit" transform="translate(-293.406 -177.573)">
    <path id="Caminho_11" data-name="Caminho 11" d="M330.4,184.806l-1.254,4.679a.5.5,0,0,0,.958.254l1.254-4.679a.5.5,0,0,0-.958-.254m-5.67,0,1.254,4.679a.5.5,0,0,1-.958.254l-1.251-4.679a.493.493,0,0,1,.348-.6A.5.5,0,0,1,324.729,184.806Zm7.632,17.9c-.212.925-2.279,1.653-4.8,1.653s-4.585-.728-4.8-1.653a41.8,41.8,0,0,0,.293-5.059q0-.385-.009-.762a19.722,19.722,0,0,0,9.022,0c0,.251-.006.5-.006.762A41.81,41.81,0,0,0,332.361,202.71Zm-.269-6.54a19.642,19.642,0,0,1-9.055,0c-.015-.526-.042-1.043-.076-1.541a30.659,30.659,0,0,0,9.206,0C332.134,195.127,332.11,195.644,332.092,196.17Zm-4.528-4.537c2.838,0,5.141.39,5.141.87s-2.3.867-5.141.867-5.141-.39-5.141-.867S324.726,191.633,327.564,191.633Zm0-.58c4.25,0,7.7.786,7.7,1.753s-3.446,1.753-7.7,1.753-7.695-.786-7.695-1.753S323.315,191.053,327.564,191.053Zm.5-6.486v4.845a.5.5,0,0,1-.991,0v-4.845a.5.5,0,0,1,.991,0Zm-.5-3.639a13.289,13.289,0,1,1-13.289,13.29A13.291,13.291,0,0,1,327.564,180.928Zm0-3.355a16.646,16.646,0,1,1-16.647,16.644A16.647,16.647,0,0,1,327.564,177.573Z" transform="translate(35.414 0)" fill="#fff" fill-rule="evenodd"/>
    <path id="Caminho_12" data-name="Caminho 12" d="M310.922,230.7l8.29-35.011h-9.744v-3.935c4.661-.094,9.463-.3,14.4-.653q7.412-.494,15.106-1.312l-10.421,45.245c-.212.958-.4,1.85-.517,2.693a13.271,13.271,0,0,0-.163,1.711,1.877,1.877,0,0,0,2.2,2.2c1.78,0,3.724-1.336,5.809-3.981a62.792,62.792,0,0,0,6.767-11.9L345.583,227q-4.393,10.926-9.838,15.668a19.733,19.733,0,0,1-13.465,4.73c-3.959,0-7.027-.843-9.179-2.554a8.732,8.732,0,0,1-3.21-7.26,20.594,20.594,0,0,1,.281-3.019c.187-1.242.423-2.53.75-3.866" transform="translate(32.484 24.71)" fill="#d9000d"/>
    <path id="Caminho_13" data-name="Caminho 13" d="M313.5,248.105c-6.018,0-10.89-1.221-14.568-3.657-3.675-2.457-5.528-5.594-5.528-9.412a8.232,8.232,0,0,1,2.134-5.9,7.322,7.322,0,0,1,5.6-2.249,7.888,7.888,0,0,1,5.6,1.968,6.554,6.554,0,0,1,2.131,5.108,10.76,10.76,0,0,1-.916,4.12,10.621,10.621,0,0,0-.913,2.741,3.113,3.113,0,0,0,1.9,2.9,12.046,12.046,0,0,0,5.6,1.009,14.663,14.663,0,0,0,8.173-2.061,6.2,6.2,0,0,0,3.161-5.365,6.829,6.829,0,0,0-1.85-4.543c-1.242-1.451-4-3.536-8.269-6.3q-8.147-5.273-11.24-9.276a13.861,13.861,0,0,1-3.092-8.711,16.972,16.972,0,0,1,6.256-13.232q6.216-5.445,15.714-5.455,7.34,0,11.872,2.95c3.022,1.968,4.522,4.473,4.522,7.541a7.019,7.019,0,0,1-1.686,4.893,5.716,5.716,0,0,1-4.5,1.9,6.939,6.939,0,0,1-5.126-2.016,7.013,7.013,0,0,1-2.04-5.174,14.663,14.663,0,0,1,.211-2.294c.139-.892.212-1.43.212-1.617a2.4,2.4,0,0,0-1.2-2.224,7.028,7.028,0,0,0-3.606-.725,12.637,12.637,0,0,0-6.649,1.569c-1.735,1.055-2.6,2.367-2.6,3.911q0,2.951,7.471,7.354c2.506,1.5,4.519,2.741,6.042,3.7a29.462,29.462,0,0,1,8.5,8.2,17.523,17.523,0,0,1,2.717,9.554q0,9.484-6.486,15.127-6.465,5.658-17.542,5.67" transform="translate(0 24.71)" fill="#fff"/>
    <path id="Caminho_14" data-name="Caminho 14" d="M320.724,240.88l8.405-35.643h-7.048V201.3h8.408l3.488-15.6c.281,0,.725.024,1.312.07,2.46.142,4.147.211,5.014.211q2.666,0,5.688-.281c2.013-.187,4.216-.469,6.583-.84L348.732,201.3h8.336v3.935h-9.3l-9.533,41.192c-.045.187-.139.538-.257,1.031a5.612,5.612,0,0,0-.163,1.173,2.207,2.207,0,0,0,.586,1.686,2.111,2.111,0,0,0,1.614.583c2.016,0,4.123-1.288,6.3-3.887a41.99,41.99,0,0,0,6.253-10.866l2.95,1.312c-2.155,6.253-5.223,11.122-9.252,14.589a20.442,20.442,0,0,1-13.631,5.177c-4.165,0-7.35-.822-9.6-2.484a8.261,8.261,0,0,1-3.349-7.072,20.489,20.489,0,0,1,.278-2.811c.166-1.242.423-2.551.753-3.98" transform="translate(53.163 14.743)" fill="#fff"/>
  </g>
</svg>
