<svg xmlns="http://www.w3.org/2000/svg" width="883.1" height="907.617" viewBox="0 0 883.1 907.617">
  <g id="mapa" transform="translate(-798.329 -60.622)">
    <g id="Grupo_33" data-name="Grupo 33" transform="translate(1265.475 469.883)">
      <g id="Grupo_32" data-name="Grupo 32">
        <path id="Caminho_55" data-name="Caminho 55" d="M1148.188,246.417c-1.016,0-3.991,1.154-4.377-1.157s1.679-2.943,2.328-3.713a48.7,48.7,0,0,0-5.995-.832,27.511,27.511,0,0,0-5.578.57c-1.726.386-5.209,3.282-6.75,4.823s-4.808.956-6.535.956-2.311-.585-3.483-1.541c-1.139-.956-2.5-.77-4.082-.77s.632,3.081-.139,4.038.57,1.541,0,3.02c-.587,1.479-3.084-1.278-3.084-1.278s-9.445-3.468-10.6-3.468-2.125.77-2.9,1a7.083,7.083,0,0,1-6.166-1.585c-2.311-2.111,0-2.683,0-3.854,0-1.139-2.111-3.265-3.265-3.651s-1.157,1.541-2.9,2.7c-1.726,1.154-1.34-.386-3.267-2.7s-.956.2-3.267,1.541-1.942,4.424-2.311,6.166a1.575,1.575,0,0,1-1.942,1.34l-4.622-2.113s-3.453-3.651-4.994-5.192-4.622,0-5.393,0a12.781,12.781,0,0,1-5.023-1.942c-2.329-1.34-.369-4.622,0-6.7s1.172-5.038.971-5.809-1.927,2.311-3.282,4.622a40.85,40.85,0,0,0-2.683,7.119l-2.126,5.024a43.825,43.825,0,0,0-1.357,5.764c0,1.172-.369,2.311-1.91,4.823s-3.282.971-3.282,6.364,1.154,6.166,0,8.662-3.653,3.265-4.424,7.32,0,6.364-.584,8.474-8.09,3.468-10.2,6.735c-2.128,3.282-2.512,6.75-4.439,10.6s-3.128,6.349-5.41,7.32-5.963.57-8.075,1.925-2.311,4.038-5.393,5.4-4.622,1.154-4.622,3.081.971,2.128.971,4.238.57,4.422-3.282,7.32a6.472,6.472,0,0,0-.632.54c-.032.03-.079.062-.109.092a7,7,0,0,0-.679.679,10.8,10.8,0,0,0-.786.924c-.248.292-.493.6-.708.909a4.887,4.887,0,0,0-.324.478,5.064,5.064,0,0,0-.34.508q-.323.487-.646,1.018c-.215.354-.416.708-.6,1.048a11.872,11.872,0,0,0-.538,1.063.763.763,0,0,0-.094.139c-.122.277-.245.54-.384.817q-.372.832-.694,1.618a2.3,2.3,0,0,0-.153.431c-.124.31-.215.6-.325.894-.047.216-.124.4-.168.6-.062.2-.094.384-.156.555a2.652,2.652,0,0,0-.092.446c0,.062-.015.139-.015.2a2.372,2.372,0,0,0-.032.278.735.735,0,0,0-.03.245c0,2.512,0,4.825.186,6.55s2.125,4.238,2.125,5.578c0,1.357,1.14,3.084-.77,3.084a2.142,2.142,0,0,0,0,3.48c2.111,1.727,7.506,2.113,7.506,2.113s-.971,3.852-1.741,4.422c-.771.587-2.683,1.942-1.142,2.9s1.342,2.7,4.038,1.541-.183-1.727,3.669-1.357c3.852.4,4.422-.183,5.764,1.744s4.253,3.466,6.933,5.593c2.712,2.11,9.061,2.68,10.419,2.881,1.34.2,5.393,1.741,5.963,2.7s.971,1.724,3.282,2.9c2.311,1.142,3.082,3.654,4.717,5.578a3.616,3.616,0,0,0,.986-1.293c.555-1.357.139-2.883.555-4.392.585-2.019,4.238-2.789,5.593-4.038a3.479,3.479,0,0,0,.339-.372,1.19,1.19,0,0,0,.186-.216c.062-.107.139-.216.216-.322s.106-.215.183-.324a5.034,5.034,0,0,0,.324-.738,1.877,1.877,0,0,0,.139-.372c.248-.708.4-1.432.632-2.1a17.481,17.481,0,0,1,3.176-5.484c1.154-1.065,4.9-1.065,7.211-1.635s6.364-1.65,6.936-1.65,3.775-1.432,4.545-1.432,2.975,1.432,5.192,1.432,2.22-.183,2.9-.954a22.416,22.416,0,0,1,4.239-2.7,7.871,7.871,0,0,1,3.651-1.172,20.091,20.091,0,0,1,5.487,0,6.411,6.411,0,0,0,4.236-.461c1.65-.773,3.654.092,4.625.461s3.852,1.558,5.3,2.328c1.432.77,5.487-2.019,6.364-2.328a44.24,44.24,0,0,0,5.194-3.545,15.953,15.953,0,0,0,3.466-3.188c.864-1.065-.292-2.2-.384-2.975-.109-.77-.956-2.99-1.063-4.053s1.063-2.22,1.355-2.789-.092-2.7-.862-3.176-1.927-.2-3.282-1.449.384-2.789,1.063-4.236,3.173-3.267,4.037-4.33,2.5-1.65,3.468-2.314-.278-2.9-1.157-4.531a23.871,23.871,0,0,0-3.56-4.823c-1.65-1.818-1.249-2.589-1.65-3.852-.369-1.248.587-.865,1.65-2.405s0-1.724,0-3.852a8.52,8.52,0,0,1,.971-4.129c.384-.77,2.5-.585,2.975-.585.493,0,2.512-.478,4.791-.956a7.067,7.067,0,0,0,3.684-1.833c1.063-.773.109-2.128,0-2.42a24.465,24.465,0,0,1-2.019-2.975c-.679-1.449-1.541-2.42-1.665-3.191s2.051-2.495,2.344-3.265-1.541-2.405-2.219-3.669,1.357-2.881,2.311-3.176a4.789,4.789,0,0,1,2.019,0c.493,0,2.22.679,3.56.971a1.913,1.913,0,0,0,2.128-.478c.679-.493-.186-1.541-.77-2.542a29.536,29.536,0,0,1-1.358-2.759c-.322-.676,1.635-3.666,1.635-3.666s2.9,2.125,3.282,2.6a37.135,37.135,0,0,0,3.081,3.176c1.541,1.447,1.833,0,3.081,0a31.836,31.836,0,0,1,3.745.416c.245-.773-1.157-1.665-1.157-2.175v-7.459c0-2.049,1.018-1.662,1.788-2.172s.138-1.8-.525-2.187c-.632-.386-2.8-2.051-4.992-3.468-2.172-1.417-.785-4.746-.508-5.779a21.193,21.193,0,0,0,.508-5.13c-.124-1.543-.785-1.927-.785-3.993,0-2.049.523-1.541,1.925-3.082,1.434-1.541,4.377-2.172,5.286-3.468C1153.444,246.293,1149.206,246.417,1148.188,246.417Z" transform="translate(-987.212 -226.14)" fill="#efbf2d" stroke="#fff" stroke-linecap="round" stroke-linejoin="round" stroke-width="1"/>
        <path id="Caminho_56" data-name="Caminho 56" d="M1055.056,262.238c0,.493-.694.679-1.263,1.263s-.57,2.958-.57,3.592,1.249,1.6-.2,1.987a34.216,34.216,0,0,1-5.286.77,49.859,49.859,0,0,1-7.612-.679c-3.76-.476-6.75-.476-7.612-.676a2.264,2.264,0,0,1-.865-3.359,13.826,13.826,0,0,1,2.019-1.974c.386-.339,1.635-1.016,1.635-1.31s-.57-2.2.2-3.466,2.11-2.99,3.374-2.99c1.248,0,5.779-.186,6.349,0a22.705,22.705,0,0,0,3.282.877c.463,0,4.038.186,4.038.186l2.512,2.7Z" transform="translate(-922.235 -183.048)" fill="#efbf2d" stroke="#fff" stroke-linecap="round" stroke-linejoin="round" stroke-width="1"/>
      </g>
    </g>
    <path id="Caminho_57" data-name="Caminho 57" d="M1100.609,383.256c.384.862,2.789,4.622,2.789,4.622a24.992,24.992,0,0,1-1.434,4.516c-1.062,2.512-1.833,13.1-2.219,15.9s-7.32,8.754-11.278,11.467a4.889,4.889,0,0,0-.54.4,7.442,7.442,0,0,0-.617.49,109.5,109.5,0,0,0-12.606,13.332c-.8-1.618-1.34-2.683-1.447-2.866-.572-.971-1.343-2.113-1.343-2.113s-2.125.572-2.712.186c-.57-.386-1.91,1.541-3.451,0s0,0,.57-.956,2.881-3.282,3.651-5.207,0-3.669.587-4.238,3.081-1.157,4.808-4.823c1.742-3.654-3.654-2.113-4.223-2.113s-7.9.971-10.216.971-7.706-2.9-9.448-5.393-16.366-13.5-16.75-14.64c-.386-1.172-2.7-1.541-2.7-1.541s-7.7-1.358-9.832-2.128c-2.111-.77-7.89-4.038-12.512-5.579s-16.18-1.355-17.538-1.172c-.939.139-7.4.079-11.157.032.109-.062.215-.109.324-.171.215-.107.416-.2.585-.275.263-.141.493-.248.664-.325.106-.047.183-.092.245-.124.587-.277,2.128-2.589,3.081-6.163.971-3.56.493-7.615.77-12.036a9.793,9.793,0,0,0-.044-1.788,30.9,30.9,0,0,1,4.761-1.494c.971,0,3.082-.371,3.669,1.172s3.852,2.11,3.852,2.11.956-2.158,2.125-1.665c1.142.508,3.884-1.65,5.118,0a15.215,15.215,0,0,0,5.086,3.592c.585.183,2.7-.186,4.437,0s4.808-.386,6.349.954a13.327,13.327,0,0,0,2.3,1.741,8.553,8.553,0,0,1,4.055,0c1.94.572,6.564,4.238,8.288,4.053s4.439.186,4.439-.969v-4.238c0-1.727-.4-6.827,3.082-6.782,3.453.032,5.194,0,5.194,0a10.447,10.447,0,0,0,2.311-1.308c.57-.572,3.852-3.282,4.823-3.084a25.313,25.313,0,0,1,2.883.971s.2-.416,2.881-.986c2.712-.555,5.393-1.325,5.98-1.325s3.852.57,5.009,2.311,2.11,2.683,2.881,2.883,1.741,1.34,3.483.2c1.726-1.169,4.622-3.666,6.163-4.437,1.249-.617,6.4-1.372,14.224,0a12.685,12.685,0,0,0,2.435,3.173c1.248,1.357,2.111,2.314,2.111,2.314s-4.714,7.226-4.808,8.766,0,7.414,0,8.09A31.4,31.4,0,0,0,1100.609,383.256Z" transform="translate(269.078 433.004)" fill="#efbf2d" stroke="#fff" stroke-linecap="round" stroke-linejoin="round" stroke-width="1"/>
    <path id="Caminho_58" data-name="Caminho 58" d="M1179.433,162.843c-.2.909-.387,1.788-.572,2.465-.631,2.435-3.4,4.5-4.685,5.779a52.724,52.724,0,0,1-5.269,3.914c-2.252,1.665-6.411,2.19-6.411,2.19a36.546,36.546,0,0,0-3.99,4.36c-1.789,2.373,0,2.9,0,4.362s-1.4,3.483-2.76,5.331c-1.34,1.865-3.914,4.947-3.914,4.947a18.688,18.688,0,0,1,.508,1.989c.325,1.479,2.187,3.02,2.066,3.991-.139.956-.448,1.464-1.62,3.082-1.14,1.6-.694,3.406-.446,4.546a21.583,21.583,0,0,0,2.311,4.5,13.2,13.2,0,0,1,1.3,5.593c-.077,1.219-.909,2.111-1.865,3.082s-3.02,1.865-4.115,3.592-.569,10.079-.569,11.62,1.848,1.662,2.373,2.125a7.7,7.7,0,0,0,3.081,1.34c1.278.263,1.865,1.665,2.187,2.636s-.522,3.267-.847,4.622-1.665,2.883-2.819,4.362-3.267.386-4.625.448-2.958,1.618-5.393,2.571a5.556,5.556,0,0,1-5.071-.894,19.119,19.119,0,0,1-1.479-2.063c-.324-.632-4.238-.124-6.426.585s-1.927,1.727-2.881,3.205c-.971,1.481-4.177,3.22-6.3,4.377-2.111,1.157-5.316,5.133-8.338,6.936-3.02,1.786-9.891,3.527-10.34,3.713a14.732,14.732,0,0,0-1.34.909,45.5,45.5,0,0,0-3.991,3.205c-1.157,1.154-2.435,3.02-2.5,4.622a29.26,29.26,0,0,1-.971,5.841c-.647,2.636-3.651,7.382-4.238,9.956-.57,2.574-2.111,3.02-3.267,4.115a5.509,5.509,0,0,0-2.064,4.236,25.792,25.792,0,0,0,.647,4.687s1.727,3.468,2.249,4.36c.51.909.124,2.7.124,3.143s1.033,3.53,1.216,4.5c.2.956-1.216,1.927-1.4,2.311s-.708,5.965-.83,7.768a6.287,6.287,0,0,1-.971,2.958s-6.55-.708-7-.708-1.925-1.281-2.757-2.512-.77-3.205-1.234-4.546a2.721,2.721,0,0,0-1.6-1.865c-.309-.139-2.559-1.68-2.559-2.7s2.5-2.757,2.621-3.082-.248-1.033-.956-3.406-1.665-.971-2.373-1.417-3.206-.894-4.053-1.788c-.832-.909-.508-2.249-1.018-3.991s-1.293-.894-2.063-1.541a3.826,3.826,0,0,1-.894-2.234c1.157-1.741,1.927-3.483,3.082-5.6s.77-3.282,1.541-5.393,1.541-.971,2.883-1.741,2.712,0,3.282,0,1.742-3.267,1.541-5.579a20.519,20.519,0,0,0-1.741-6.75c-.771-1.34-3.453-.954-5.965-.369s-4.823,3.082-5.393,3.651-3.654-4.823-4.238-5.962c-.584-1.172-3.669-3.854-4.622-5.794a9.191,9.191,0,0,1-.956-4.9c0-1.833-.4-.493-1.942-.092-1.541.384-2.881-.585-4.038-1.541s3.267-2.712,5.009-4.053,2.943-11.358,2.943-11.358.139-4.625-.062-6.564c-.183-1.912.2-8.846,0-11.358-.183-2.512-2.311-6.166-3.265-7.706s-4.625-4.053-6.55-5.962c-1.927-1.942-2.7.183-4.238,0a36.227,36.227,0,0,0-4.808,0l-1.9-4.209a15.24,15.24,0,0,0,1.494-1.957c2.128-3.282,3.282-2.9,4.622-4.253,1.357-1.34,5.023-2.5,8.291-4.422a15.4,15.4,0,0,0,4.424-4.392c1.016-1.4,1.942-2.866,2.9-4.085a62.219,62.219,0,0,0,4.238-6.549c1.727-2.7.957-3.465,1.541-5.207s3.267-3.854,5.209-6.535a24.794,24.794,0,0,0,3.453-6.564c.771-2.113.771-5.578,1.541-8.477.77-2.881,3.852-6.933,5.593-10.2s4.622-13.869,5.192-19.264a120.282,120.282,0,0,0,.186-12.789c.446.139.894.277,1.31.4.245.077.478.154.723.23.646.2,1.281.384,1.865.57.292.092.585.186.862.277.295.077.555.168.817.248,2.111.661,3.622,1.139,4.253,1.34.077.03.139.045.186.062s.092.03.106.03c.879.292,5.873,3.282,6.366,3.56.476.292,2.7,4.347,3.359,4.917s1.833-.386,2.512-1.343a7.264,7.264,0,0,1,4.531-2.217c1.248.092,6.163,7.119,7.89,9.522,1.741,2.42,6.364,12.051,6.272,12.73-.107.661-.2,2.789-.293,3.453-.109.676,1.925,1.833,1.925,1.833l.77-.186a24.772,24.772,0,0,1,3.854-1.248c.384.092,1.249,1.912,1.249,1.912a24.294,24.294,0,0,0,5.192-3.267c1.541-1.541,2.128-1.449,4.531-2.22s4.623,1.063,6.659,1.833c2.016.77,10.109,5.195,10.109,5.195s4.622,1.741,5.006,1.741a.944.944,0,0,1,.171.015.592.592,0,0,1,.154.015c.109.015.248.032.416.047a.711.711,0,0,0,.077.015c.062,0,.124.015.186.015a5.723,5.723,0,0,0,.6.077c.4.047.85.109,1.343.171l.369.045c.8.094,1.679.218,2.544.325.307.047.614.077.909.109.154.03.307.045.461.062a.2.2,0,0,0,.092.015c.263.03.525.062.771.092a1.985,1.985,0,0,0,.4.047c.339.062.664.092.956.121.168.032.34.047.478.062a.175.175,0,0,0,.092.017c.369.03.664.077.862.092a26.33,26.33,0,0,1,6.936,2.712A4.072,4.072,0,0,0,1179.433,162.843Z" transform="translate(344.219 85.486)" fill="#d8d8d8" stroke="#fff" stroke-linecap="round" stroke-linejoin="round" stroke-width="1"/>
    <path id="Caminho_59" data-name="Caminho 59" d="M1259.2,292.325c-.894.77-5.393,2.187-6.426,3.22a35.153,35.153,0,0,0-3.852,5.009c-.632,1.157,2.7,1.927,2.063,3.713-.646,1.8-1.155,2.574-3.081,3.084s-3.468,1.541-3.731,2.45a18.513,18.513,0,0,0-.26,4.1c0,1.541-.248,2.834.77,4.115s2.064,2.187,3.221,3.589,4.622,6.042,4.622,6.812-.646,2.435-.26,3.344l-8.093-1.033s-3.265,3.082-3.466,3.852.57,1.357-1.157,1.157-1.924-.51-3.468.03-5.006,1.125-5.006,2.851,0,4.622,1.154,5.209a4.26,4.26,0,0,1,2.311,3.082c.2,1.355,1.741,2.125.2,3.852s-6.75,1.157-5.024,2.128,5.98,3.267,6.166,4.808,2.512,2.7.2,6.349-4.236,6.933-5.192,8.477c-.971,1.538-.709,5.393-1.511,5.977a40.115,40.115,0,0,0-4.469,4.238c-1.355,1.541-2.311.77-4.622,1.741s-5.209,1.34-5.209,2.68a37.813,37.813,0,0,0,1.357,6.75c.03.077.045.171.077.263-1.464.755-2.836,1.727-3.161,2.821-.77,2.571-1.8,1.925-3.589,4.885a19.31,19.31,0,0,0-2.311,4.622c-.525,1.278-1.033,3.466-1.68,4.87s-1.927,2.834-1.157,4.885.431,3.081-.231,3.468a17.091,17.091,0,0,1-2.851.892s-9.631,1.8-10.788,3.73-2.435,3.468-3.329,3.344c-.909-.139-3.6-1.157-5.393-1.419-1.8-.26-5.393-1.417-7.458-.892-.154.03-.325.092-.54.154-.107.03-.231.062-.354.107-.956.31-2.326.8-3.837,1.343-.186.059-.369.139-.57.215-.756.263-1.541.555-2.311.832-.864.307-1.712.6-2.482.862-.245.092-.493.169-.724.248-.817.26-1.511.476-2.019.6-2.7.647-10.788,2.7-10.788,2.7l-2.7,2.4-3.081.77a40.7,40.7,0,0,0-3.56,2.9c-1.063,1.048-2.9,1.157-4.052,1.248a31.3,31.3,0,0,1-4.808-.2c-2.512-.186-2.019.109-3.374.585s-1.726,1.836-2.5,3.854a8.411,8.411,0,0,1-1.357,2.6c-.292.478-8.291-.879-9.062-1.063a7.888,7.888,0,0,1-3.173-1.248c-1.156-.879-1.927-4.439-2.113-5.98s-2.311-2.4-2.789-2.7c-.493-.277-1.939-2.7-2.311-5.006-.4-2.314-.2-1.727.094-2.405a12.214,12.214,0,0,0-.2-4.159,12.176,12.176,0,0,1-.094-3.745c.2-.77,2.018-2.5,2.99-3.361a7.41,7.41,0,0,0,1.541-3.852c0-.585-1.924-2.8-6.071-2.8s-2.6.77-3.465.679a19.243,19.243,0,0,1-2.5,0c-.493-.186-1.449-3.654-2.22-5.1s-2.311-6.936-1.449-8.477.587-1.34,1.063-3.205a2.743,2.743,0,0,0-1.355-3.158c-.57-.372-3.082-1.912-2.883-2.591s2.5-3.666,2.405-4.236c-.092-.587-2.5-4.147-4.038-4.823a4.289,4.289,0,0,0-2.8-.28,13.644,13.644,0,0,0-2.111-1.169,18.051,18.051,0,0,0-4.625,1.449c-2.019.971-1.742,1.355-2.311,1.739a3.4,3.4,0,0,1-2.512.386,15.907,15.907,0,0,0-3.76-.679c-.661,0-1.34.956-1.632,1.063s-5.487.186-7.506.664a5.677,5.677,0,0,1-3.76-.478l-1.155.386-1.157,1.925s-1.927,1.741-2.311,2.219-.77-2.019-.865-3.282-2.217.292-2.217.292a34.886,34.886,0,0,1-3.285,1.927c-.57.2-.862-2.11-.954-3.176s-.478-2.9-.678-4.528-.862-1.248-.862-1.248a48.065,48.065,0,0,0-5.209-.572c-1.632,0-5.1,1.142-6.257,1.343a50.476,50.476,0,0,1-5.485,0c-1.543,0-4.917-1.741-5.487-2.606-.587-.862-3.669-1.34-4.238-1.34-.585,0-2.019,1.434-3.282,2.019a8.9,8.9,0,0,0-1.125.723,2.036,2.036,0,0,0-.325.233c-.277.2-.585.431-.909.661-.278.215-.585.448-.877.679-.371.277-.756.57-1.127.862-.23.171-.446.339-.661.508-.047.032-.092.079-.139.109-.168.139-.325.263-.478.369q-.509.416-.924.741c-.139.109-.263.2-.369.277l-.047.047c-.139.107-.248.216-.354.292-.017.015-.032.015-.047.03-.092.077-.186.154-.248.2a1.406,1.406,0,0,1-.153.124l-.015.015s-.478-3.173-.478-3.944-.77-4.052-.77-5.3,1.541-1.927,3.468-3.562a3.382,3.382,0,0,0,.971-1.293c.57-1.355.139-2.881.57-4.392.57-2.019,4.238-2.789,5.579-4.038a2.629,2.629,0,0,0,.339-.369.844.844,0,0,0,.186-.215c.077-.109.153-.218.215-.325a3.527,3.527,0,0,0,.183-.324,5.122,5.122,0,0,0,.34-.738,3.24,3.24,0,0,0,.139-.372c.248-.708.4-1.432.632-2.1a17.482,17.482,0,0,1,3.176-5.484c1.154-1.065,4.9-1.065,7.211-1.635s6.366-1.647,6.936-1.647c.585,0,3.76-1.434,4.531-1.434s2.99,1.434,5.207,1.434,2.219-.186,2.883-.956a23.431,23.431,0,0,1,4.238-2.7,7.991,7.991,0,0,1,3.666-1.172,20.106,20.106,0,0,1,5.487,0,6.419,6.419,0,0,0,4.238-.461c1.632-.77,3.651.092,4.622.461s3.852,1.558,5.3,2.328,5.487-2.019,6.349-2.328a44.187,44.187,0,0,0,5.21-3.545,16.257,16.257,0,0,0,3.465-3.188c.865-1.065-.292-2.2-.384-2.975-.109-.77-.971-2.99-1.063-4.053s1.063-2.22,1.355-2.789-.106-2.7-.877-3.176-1.927-.2-3.268-1.447c-1.357-1.248.384-2.792,1.063-4.238.664-1.449,3.173-3.267,4.038-4.33s2.5-1.65,3.468-2.311c.971-.679-.295-2.9-1.157-4.531a23.888,23.888,0,0,0-3.559-4.825c-1.65-1.818-1.249-2.589-1.65-3.852-.369-1.248.587-.862,1.65-2.4s0-1.727,0-3.854a8.553,8.553,0,0,1,.956-4.129c.384-.77,2.512-.585,2.99-.585s2.511-.478,4.776-.956a7.188,7.188,0,0,0,3.7-1.833c1.063-.77.094-2.128,0-2.42a24.421,24.421,0,0,1-2.019-2.975c-.676-1.449-1.541-2.418-1.679-3.188s2.066-2.5,2.358-3.267-1.541-2.405-2.219-3.669,1.34-2.881,2.311-3.176a4.8,4.8,0,0,1,2.019,0c.478,0,2.22.679,3.545.971a1.934,1.934,0,0,0,2.143-.478c.679-.493-.2-1.541-.77-2.542a29.916,29.916,0,0,1-1.372-2.76c-.322-.676,1.65-3.666,1.65-3.666s2.9,2.125,3.282,2.6a37.23,37.23,0,0,0,3.081,3.176c1.541,1.447,1.833,0,3.082,0a31.87,31.87,0,0,1,3.73.416c-.262.77-1.033.384-1.679,2.45-.632,2.049-1.789,3.976-.894,4.1s5.516-.894,6.041-1.541c.508-.632,6.671-5.9,7.565-6.8a35.249,35.249,0,0,1,5.009-3.852c1.68-1.033,7.072-2.45,7.072-2.45l.88-.525,2.975-1.788s6.025-5.3,8.335-5.915,10.018-1.142,10.927-.632a27.718,27.718,0,0,1,3.206,2.958,4.674,4.674,0,0,1-.771,2.7c-.894,1.417-2.187,2.958-1.417,4.746s1.925,3.344,3.6,3.728c1.664.386,3.329,1.157,4.238.386.894-.77,1.4-2.958,2.943-3.731s1.157-2.7,5.148-1.662a13.836,13.836,0,0,1,6.936,3.852c.771.894,1.016,1.8,5.009,3.728a72.39,72.39,0,0,1,7.442,4.238,16.71,16.71,0,0,0,4.238,1.4s5.655-.508,6.426-1.278,1.541-1.281,2.311-1.033a28.75,28.75,0,0,1,3.084,1.679l5.254,9.368a14.1,14.1,0,0,0,.525,3.468c.384.647,4.622,1.281,4.622,1.281s2.048-.386,2.311-1.018-.262-1.679,2.049-1.541,2.19-.525,5.271.632,3.976.909,4.1,1.927,2.45,2.311,3.607,2.311,4.236,0,5.779,1.154,3.326,1.8,4.359,4.115S1260.1,291.554,1259.2,292.325Z" transform="translate(306.579 269.496)" fill="#ccaf47" stroke="#fff" stroke-linecap="round" stroke-linejoin="round" stroke-width="1"/>
    <path id="Caminho_60" data-name="Caminho 60" d="M1190.959,364.144c-.649,1.154-2.066,3.082-2.066,3.082l-2.172,2.8a25.2,25.2,0,0,0-7.29,2.712c-2.219,1.541,0,3.374,0,4.147s-1.355,2.019-1.355,2.019-3.376.092-5.009.954c-1.635.879-5.393,3.19-5.67,3.483-.295.277-3.285,1.818-3.855,2.405-.585.57.278,1.632.664,2.111s3.961,1.541,4.531,1.927-4.823,4.915-6.55,4.622-10.4-5.1-11.65-5.195a4.388,4.388,0,0,0-3.282,1.157c-.386.57-2.883,3.852-4.038,4.531s-5.5-.106-6.75.277-5.779,3.468-6.936,5.115-1.541,2.683-1.925,3.084c-.386.369-2.219.476-3.468,1.541-1.249,1.048-15.7,9.616-15.7,9.616a38.712,38.712,0,0,0-2.311,6.933,9.231,9.231,0,0,1-2.807,4.008,5.557,5.557,0,0,0-1.818-2.467c-1.34-.77-1.541-6.933-2.68-6.933H1093.8s-2.11,4.823-2.11,2.9v-8.09a3.11,3.11,0,0,0-2.7-1.34c-1.927,0-6.75-.4-7.32,0-.57.369-6.936-.186-6.936-.186a13.578,13.578,0,0,1,0-2.9,14.982,14.982,0,0,0,.77-3.483c0-1.142.6-2.683-.862-4.038a36.337,36.337,0,0,1-4.731-5.98A16.9,16.9,0,0,1,1068,387.2c0-1.355,1.139-5.024,0-7.134-1.172-2.111-4.625-8.474-5.794-9.046-1.142-.585-5.578-2.68-7.122-1.724s-7.119,2.1-7.119,2.1l-8.028-2.1s-1.8-2.9-2.665-2.9-13.961-2.125-13.961-2.125l-6.166-1.927a25.189,25.189,0,0,0-4.823-.971,5.567,5.567,0,0,0-2.881.971,25.037,25.037,0,0,1-5.8.971c-2.494,0-8.66-.587-8.66-.587l-7.166-.708c.2-.168.4-.339.617-.508,2.343-1.927,5.256-4.407,7.6-6.458.248-.2.478-.4.694-.6.416-.369.817-.709,1.172-1.033.248-.216.478-.416.679-.6.709-.632,1.231-1.11,1.494-1.34l.124-.124c.956-.954,4.422-2.68,7.119-4.729s3.468-2,3.082-3.161a4.382,4.382,0,0,1,.956-4.038,18.744,18.744,0,0,1,3.669-1.741s-.186-4.052-.788-5.009.6-2.125,3.683-6.163,3.267-.585,4.917-1.541.077-2.7.077-4.808c0-2.128-.57-6.165,1.355-8.677s7.521-2.7,8.09-2.7,2.7-4.917,2.7-4.917l.015-.015a1.426,1.426,0,0,0,.153-.124c.062-.047.156-.124.248-.2.015-.015.029-.015.047-.03.106-.077.215-.186.354-.292l.047-.047c.107-.077.23-.168.369-.277q.416-.323.924-.741c.153-.107.31-.23.478-.369.047-.03.092-.077.139-.109.216-.168.431-.337.661-.508.372-.292.756-.585,1.127-.862.292-.23.6-.463.877-.679.324-.23.632-.461.909-.661a2.041,2.041,0,0,1,.325-.233,8.9,8.9,0,0,1,1.124-.723c1.263-.585,2.7-2.019,3.282-2.019.569,0,3.651.478,4.238,1.34.57.865,3.944,2.606,5.487,2.606a50.479,50.479,0,0,0,5.484,0c1.157-.2,4.625-1.343,6.257-1.343a48.062,48.062,0,0,1,5.209.572s.677-.386.862,1.248.584,3.466.678,4.528.384,3.376.954,3.176a34.879,34.879,0,0,0,3.285-1.927s2.11-1.541,2.217-.292.478,3.76.865,3.282,2.311-2.22,2.311-2.22l1.157-1.925,1.155-.386a5.677,5.677,0,0,0,3.76.478c2.019-.478,7.228-.57,7.506-.664s.971-1.063,1.632-1.063a15.908,15.908,0,0,1,3.761.679,3.4,3.4,0,0,0,2.512-.386c.57-.384.292-.768,2.311-1.739a18.051,18.051,0,0,1,4.625-1.449,13.638,13.638,0,0,1,2.111,1.169,4.288,4.288,0,0,1,2.8.28c1.541.676,3.946,4.236,4.038,4.823.092.57-2.219,3.56-2.405,4.236s2.314,2.219,2.884,2.591a2.743,2.743,0,0,1,1.355,3.158c-.476,1.865-.2,1.665-1.063,3.205s.678,7.028,1.449,8.477,1.727,4.915,2.22,5.1a19.237,19.237,0,0,0,2.5,0c.862.092-.679-.679,3.465-.679s6.072,2.219,6.072,2.8a7.412,7.412,0,0,1-1.541,3.852c-.971.865-2.789,2.591-2.99,3.361a12.176,12.176,0,0,0,.094,3.745,12.211,12.211,0,0,1,.2,4.159c-.294.679-.493.092-.094,2.405.371,2.311,1.818,4.729,2.311,5.006.478.295,2.591,1.157,2.789,2.7s.956,5.1,2.113,5.98a7.888,7.888,0,0,0,3.173,1.248c.77.183,8.769,1.541,9.062,1.063a8.407,8.407,0,0,0,1.357-2.6c.771-2.019,1.139-3.376,2.5-3.854s.862-.77,3.374-.585a31.3,31.3,0,0,0,4.808.2c1.154-.092,2.99-.2,4.052-1.248a40.684,40.684,0,0,1,3.56-2.9l3.081-.77,2.7-2.4s-.386,3.976,0,4.622a6.682,6.682,0,0,0,2.7,2.19c1.033.384,6.039.384,7.2.508S1191.59,362.987,1190.959,364.144Z" transform="translate(279.158 346.91)" fill="#b6211d" stroke="#fff" stroke-linecap="round" stroke-linejoin="round" stroke-width="1"/>
    <path id="Caminho_61" data-name="Caminho 61" d="M1256.754,260.577c-.248.446-.478.877-.709,1.293-.2.386-.4.755-.585,1.11-.85,1.573-1.558,2.9-1.974,3.731-1.633,3.282-9.047,10.216-10.679,12.807-1.65,2.6-4.439,9.445-5.3,11.464s-3.376,3.374-5.779,4.345c-2.42.956-1.833-1.833-2.512-2.512s-4.716,3.946-6.6,5.965c-1.863,2.034-.337,4.439-.045,5.794s-.679,3.081-1.741,4.9c-1.048,1.836.2,2.606.753,4.531s.124,4.917-.015,6.936c-.121,2.019.032,5.484,0,5.977s-2.757,3.56-3.235,5.873.77,5.1,1.632,7.8.679,8.385,1.065,10.017a70.553,70.553,0,0,1,.476,10.988,53.74,53.74,0,0,1-2.494,7.7c-1.357,3.654-1.927,9.046-3.176,13.869s-.679,12.42-.585,12.807,1.447,7.228,1.632,8.568-1.818,4.424-1.818,4.424-3.19,2.71-5.024,4.053a6.257,6.257,0,0,0-1.033,1.016,30.8,30.8,0,0,0-3.344,5.517l-1.2-.632s-6.426-3.466-7.2-4.622c-.649-.971-3.807-2.3-5.041-3.22a1.521,1.521,0,0,1-.476-.493c-.386-.909.26-2.574.26-3.344s-3.465-5.4-4.622-6.812-2.187-2.311-3.221-3.589c-1.018-1.281-.77-2.574-.77-4.115a18.513,18.513,0,0,1,.26-4.1c.263-.909,1.8-1.927,3.731-2.45s2.435-1.281,3.081-3.084c.632-1.786-2.7-2.556-2.063-3.713a35.146,35.146,0,0,1,3.852-5.009c1.033-1.033,5.532-2.45,6.426-3.22s1.033-2.819,0-5.133-2.819-2.958-4.36-4.115-4.625-1.154-5.779-1.154-3.468-1.281-3.607-2.311-1.018-.77-4.1-1.927-2.958-.508-5.271-.632-1.8.894-2.048,1.541-2.311,1.018-2.311,1.018-4.239-.634-4.622-1.281a14.1,14.1,0,0,1-.525-3.468l-5.254-9.368a28.746,28.746,0,0,0-3.084-1.679c-.77-.248-1.541.263-2.312,1.033s-6.426,1.278-6.426,1.278a16.711,16.711,0,0,1-4.238-1.4,72.361,72.361,0,0,0-7.442-4.238c-3.993-1.925-4.238-2.834-5.009-3.728a13.838,13.838,0,0,0-6.936-3.852c-3.991-1.033-3.6.892-5.147,1.662s-2.049,2.96-2.943,3.731c-.909.77-2.574,0-4.238-.386-1.68-.384-2.834-1.925-3.6-3.728s.523-3.329,1.417-4.746a4.672,4.672,0,0,0,.77-2.7,27.71,27.71,0,0,0-3.205-2.958c-.909-.51-8.615,0-10.927.632s-8.336,5.915-8.336,5.915l-2.975,1.788-.88.525s-5.393,1.417-7.072,2.45a35.252,35.252,0,0,0-5.009,3.852c-.894.894-7.057,6.166-7.565,6.8-.525.646-5.147,1.679-6.041,1.541s.262-2.051.894-4.1c.646-2.066,1.417-1.679,1.679-2.45.245-.77-1.157-1.665-1.157-2.172v-7.459c0-2.051,1.018-1.665,1.789-2.175s.139-1.8-.508-2.187-2.822-2.051-4.994-3.468c-2.187-1.417-.785-4.746-.525-5.779a21.765,21.765,0,0,0,.525-5.13c-.124-1.541-.785-1.927-.785-3.991s.508-1.543,1.925-3.084,4.362-2.172,5.272-3.465c.894-1.281-3.344-1.157-4.377-1.157-1.015,0-3.976,1.157-4.36-1.157s1.665-2.943,2.326-3.713c.646-.77.755-1.033,1.263-1.541.525-.523-.245-2.187-.832-2.45a2.558,2.558,0,0,1-1.6-2.051,6.635,6.635,0,0,1,1.6-4.236c1.219-1.281.324-1.927,0-2.574s-1.866-.894-2.373-1.281-2.7-7.2-2.435-7.966c.062-.186.325-.307.709-.4.124-.03.277-.059.448-.092.077-.015.169-.03.262-.047h.015a11.614,11.614,0,0,0,1.139-.26,2.389,2.389,0,0,0,.354-.109,3.3,3.3,0,0,0,.756-.339,2.623,2.623,0,0,0,.909-.785,2.547,2.547,0,0,0,.216-.4c.956-2.187-5.071-3.344-5.071-3.344s-.121-2.172.262-2.559,4.239-.384,5.641-.77-.771-2.7-1.263-3.465c-.508-.77-4.377-.77-5.41-1.419s-3.852-2.187-4.5-3.465,4.5-8.214,5.779-9.894,6.163-5.779,8.09-7.83,4.5-4.36,5.531-5.655a1.431,1.431,0,0,0,0-2.11l-.183-.354c.815-.847,2.418-2.943,3.126-2.542.909.523,3.344,3.991,3.344,5.655s1.156,1.925,1.156,3.082-.508,2.819,0,4.238.384,3.344,2.819,4.5,5.779,1.157,6.425,1.281,2.574,1.417,4.117.647c.154-.077.307-.154.476-.248a19.463,19.463,0,0,0,4.392-3.359c1.033-1.157,3.993-4.622,4.377-4.622a13.573,13.573,0,0,0,2.821.77c1.155,0,4.36-1.464,5.516-2.143a23.641,23.641,0,0,0,5.009-5.425c.771-1.417,4.375-7.7,3.991-8.861a9.33,9.33,0,0,0-2.311-3.852c-1.157-1.033-3.607-2.96-1.679-5.4s7.072-5.531,7.58-5.655,2.573-2.819,2.573,0,.387,3.854,1.541,3.976a6.7,6.7,0,0,0,2.946.139c1.924-.26,4.761-.77,5.147,0s-.139,2.559,2.048,3.329,3.852,1.541,5.13,0a37.564,37.564,0,0,1,3.993-4.484,16.385,16.385,0,0,1,5.393-1.927c1.4-.139,4.362-.647,4.362-.647l6.81-5.271s.248-1.925,3.591-3.468a46.66,46.66,0,0,0,7.583-4.991,7.1,7.1,0,0,0,1.4,1.665c2.45,2.049,3.468,1.541,5.269,3.327a35.475,35.475,0,0,1,4.625,6.3c.26.632.894,1.018,0,1.927a4.953,4.953,0,0,0-1.42,2.7c0,.51,2.066,3.852,2.837,3.592s5.673-3.468,5.673-3.468a4.574,4.574,0,0,0,1.9-1.157,5.555,5.555,0,0,0,1.679-3.589c0-1.68-1.157-2.311,0-2.45a23.112,23.112,0,0,1,2.943,0,7.442,7.442,0,0,0,2.958-1.142c.51-.4,1.033-.015,2.051-1.556a37.747,37.747,0,0,1,4.238-4.746c1.293-1.278,3.082-2.958,4.236-3.344s2.313-3.082,3.606-1.016c1.281,2.049,1.927,3.713,2.819,4.236s.124.51,3.084.894,4.746.124,5.13.386,1.682,2.049,2.836,2.7a8.523,8.523,0,0,0,3.329,1.157c.771,0,3.468-.109,4.885,1.293a9.185,9.185,0,0,1,2.049,4.746,4,4,0,0,0,.755,1.942c.109.186.248.4.4.617.909,1.3,2.833,2.836,2.833,3.854a2.493,2.493,0,0,0,.062.523,42.777,42.777,0,0,1,.956,4.484c0,1.3.647,3.993,1.541,4.625a23.16,23.16,0,0,1,2.636,2.973v.017c.555.708,1.062,1.34,1.355,1.632a3.622,3.622,0,0,1,1.157,2.512c0,.832-1.8,3.79-1.8,3.79s-.508-.384.124,1.927,1.033,2.7.909,3.976-2.836,2.049-3.22,1.927-2.311-1.281-2.311-1.281.139-.523-1.54,0-3.855-.614-3.855,1.3a10.967,10.967,0,0,0,1.541,5.115c.771,1.419,1.157,1.419,1.927,2.96a17,17,0,0,1,1.3,3.852c.384,1.417-.139.386,1.278,2.96a12.752,12.752,0,0,0,3.852,4.1s5.009-.508,5.517,0c.525.525,2.7-.384,3.854,0A19.575,19.575,0,0,0,1256.754,260.577Z" transform="translate(367.096 190.675)" fill="#efbf2d" stroke="#fff" stroke-linecap="round" stroke-linejoin="round" stroke-width="1"/>
    <path id="Caminho_62" data-name="Caminho 62" d="M1143.144,338.688c-1.833.679-8.276,1.727-9.43,2.311s0,1.821,0,2.99c0,1.142-1.541.865-3.76,1.343s-2.99,1.632-3.852,2.217-.478,2.606-.387,3.267c.095.679,2.79,1.65,2.79,1.65v2.019c0,.77-1.633,1.248-3.374,2.11s-18,.77-18,.77a22.493,22.493,0,0,0-4.439,0c-1.34.292-3.175,3.176-4.038,3.376a27.426,27.426,0,0,1-5.885.2c-1.818-.2-1.544-.768-2.019-1.447s-5.195-.77-6.057-.77a6.149,6.149,0,0,0-3.577,2.11,5.152,5.152,0,0,1-1.048.939,10.744,10.744,0,0,1-3.282,1.665,28.19,28.19,0,0,1-5.009.679c-1.246,0-.476-1.355-.183-2.125s.956-.865,2.881-2.591-.293-1.741-.679-1.833a1.888,1.888,0,0,0-.6.077l2.172-2.8s1.417-1.927,2.066-3.081c.631-1.157-1.541-1.68-2.7-1.8s-6.163-.124-7.2-.508a6.683,6.683,0,0,1-2.7-2.19c-.386-.647,0-4.622,0-4.622s8.09-2.051,10.788-2.7c.508-.124,1.2-.339,2.019-.6.23-.079.478-.156.723-.248.77-.263,1.618-.555,2.482-.862.77-.278,1.556-.57,2.311-.832.2-.077.384-.156.569-.215,1.511-.54,2.881-1.033,3.837-1.343.124-.045.248-.077.354-.107.215-.062.387-.124.54-.154,2.066-.525,5.655.632,7.458.892,1.788.263,4.483,1.281,5.393,1.419.894.124,2.175-1.419,3.329-3.344s10.788-3.73,10.788-3.73a17.091,17.091,0,0,0,2.851-.892c.661-.386,1-1.419.23-3.468s.525-3.468,1.157-4.885,1.155-3.592,1.68-4.87a19.308,19.308,0,0,1,2.311-4.622c1.788-2.96,2.819-2.314,3.589-4.885.324-1.095,1.7-2.066,3.161-2.821.23,1.216-.215,3.267.307,4.176.57.956,1.741,2.11,1.741,4.422s-.2,2.512,1.541,3.282c1.34.6,5.75.956,7.612,1.08.54.047.865.062.865.062l5.1,1.355h2.282a7.739,7.739,0,0,0-.354,1.063c-1.157,4.332-2.606,6.351-2.22,7.706s2.311,4.33,2.99,6.827C1150.957,336.855,1144.979,338.012,1143.144,338.688Z" transform="translate(392.681 359.297)" fill="#ccaf47" stroke="#fff" stroke-linecap="round" stroke-linejoin="round" stroke-width="1"/>
    <path id="Caminho_63" data-name="Caminho 63" d="M1123,386.488c-2.99,2.866-7.459,5.64-8.846,6.688a17.011,17.011,0,0,0-4.808,7.32,2.958,2.958,0,0,0,.262,1.833c-7.827-1.372-12.975-.617-14.224,0-1.541.77-4.436,3.267-6.163,4.437-1.741,1.142-2.713,0-3.483-.2s-1.727-1.157-2.881-2.883-4.424-2.311-5.009-2.311-3.267.77-5.98,1.325c-2.683.57-2.881.986-2.881.986a25.313,25.313,0,0,0-2.883-.971c-.971-.2-4.253,2.512-4.823,3.084a10.445,10.445,0,0,1-2.311,1.308s-1.742.032-5.194,0c-3.483-.045-3.082,5.056-3.082,6.782v4.238c0,1.154-2.712.77-4.439.969s-6.349-3.48-8.288-4.053a8.554,8.554,0,0,0-4.055,0,13.333,13.333,0,0,1-2.3-1.741c-1.541-1.34-4.622-.77-6.349-.954s-3.852.183-4.437,0a15.217,15.217,0,0,1-5.086-3.592c-1.233-1.65-3.976.508-5.117,0-1.169-.493-2.125,1.665-2.125,1.665s-3.268-.57-3.852-2.11-2.7-1.172-3.669-1.172a30.9,30.9,0,0,0-4.761,1.494,17.381,17.381,0,0,0-2.45-6.886s-2.7-7.506-3.176-9.141-1.541-1.647-2.42-2.125c-.862-.478-4.915-.664-6.641-.664s-2.22.77-5.009,1.248-1.925-1.154-1.833-1.449a32.647,32.647,0,0,1,2.126-4.33c.478-.585,1.449-4.436,1.727-7.027a20.459,20.459,0,0,1,2.7-9.153c2.019-3.173.384-6.933,0-8.291-.386-1.34-.664-3.76-1.063-4.622a10.991,10.991,0,0,0,4.622-1.449c2.311-1.34,1.742-1.91,2.311-3.852.584-1.912.4-3.453.971-5.965s2.512-2.11,4.238-3.282c1.727-1.139.954-2.311.954-3.082s1.172-4.991,2.314-6.349a57.508,57.508,0,0,1,8.675-6.75c.168-.106.416-.262.708-.478.156-.107.31-.23.478-.354a6.789,6.789,0,0,0,.555-.416.442.442,0,0,0,.109-.092c.277-.2.57-.448.877-.694.171-.124.325-.263.493-.4h.015l7.166.708s6.165.587,8.66.587a25.037,25.037,0,0,0,5.8-.971,5.568,5.568,0,0,1,2.881-.971,25.191,25.191,0,0,1,4.823.971l6.165,1.927s13.1,2.125,13.961,2.125,2.665,2.9,2.665,2.9l8.028,2.1s5.578-1.142,7.119-2.1,5.98,1.139,7.122,1.724c1.169.572,4.622,6.936,5.794,9.046,1.139,2.111,0,5.779,0,7.134a16.9,16.9,0,0,0,1.91,5.764,36.323,36.323,0,0,0,4.731,5.98c1.464,1.355.862,2.9.862,4.038a14.981,14.981,0,0,1-.77,3.483,13.587,13.587,0,0,0,0,2.9s6.366.555,6.936.186c.57-.4,5.393,0,7.32,0a3.11,3.11,0,0,1,2.7,1.34v8.09c0,1.927,2.11-2.9,2.11-2.9h5.024c1.139,0,1.34,6.163,2.68,6.933A5.556,5.556,0,0,1,1123,386.488Z" transform="translate(259.477 385.9)" fill="#ccaf47" stroke="#fff" stroke-linecap="round" stroke-linejoin="round" stroke-width="1"/>
    <path id="Caminho_64" data-name="Caminho 64" d="M1119.523,402.1c-.587.57.186,2.311-.587,4.238s-3.081,4.236-3.651,5.207-2.111-.585-.57.956,2.881-.386,3.451,0c.587.386,2.712-.186,2.712-.186s.77,1.142,1.343,2.113c.107.183.646,1.248,1.447,2.866-.632.77-1.216,1.541-1.786,2.281-.218.292-.431.585-.632.862a33.259,33.259,0,0,0-2.883,4.484c-3.173,6.257-15.98,29.279-17.63,32.084-1.632,2.789-11.358,10.879-15.594,13.193a68.634,68.634,0,0,0-8.863,5.422c-2.589,1.959-3.312,5.472-6.054,7.615a42.965,42.965,0,0,0-4.454,3.344c-2.311,2.373-3.084,5.794-4.129,8.923-1.434,4.253-3.376,9.584-6.55,12.866-1.3,1.325-3.037,1.588-4.5,2.745-2.281,1.786-6.44,7.8-9.678,6.857s-2.65-5.133-2.972-7.612c-.478-3.669,0-4.33.969-6.549s2.884-2.113,3.654-3.082,3.282-2.405,4.436-4.055c1.157-1.632-1.154-3.943-2.125-5.1-.956-1.154-4.424-1.541-5.965-2.311a6.162,6.162,0,0,1-2.789-4.808c0-1.647-2.311-3.76-4.253-5.685-1.91-1.927-4.129-4.038-4.129-4.038s-5.393-1.357-8.091-4.917-2.789-3.082-3.668-3.468c-.862-.384-4.808-1.541-6.934-3.465s-2.4-.971-5.871-2.512-3.267-1.541-6.349-4.531-4.253-4.994-6.071-6.166c-1.836-1.139-2.128,1.263-2.606,3.574s-4.238,2.5-5.192,1.343c-.971-1.157-1.358-3.854-2.606-5.871s-6.163-7.122-7.9-9.633-5.578-4.053-8.952-5.779-5.4.386-6.366,1.449c-.954,1.048-6.733,2.7-8.274,1.818-1.543-.862-1.157-1.432.092-3.173s12.329-14.347,15.611-17.523,12.9-14.546,14.548-15.886c1.632-1.357,3.944-4.055,5.393-5.3,1.432-1.263,3.359.094,4.221-.969.88-1.065-2.311-.664,1.172-3.854,3.453-3.173,8.754-6.733,14.64-10.879a95.5,95.5,0,0,1,11.559-7.028c.77-.384,7.411-1.741,9.247-3.374a22.67,22.67,0,0,1,4.159-2.636l.463-.23c3.76.047,10.218.106,11.157-.032,1.358-.183,12.913-.369,17.538,1.172s10.4,4.808,12.512,5.579c2.128.77,9.832,2.128,9.832,2.128s2.311.369,2.7,1.541c.384,1.14,15.024,12.128,16.75,14.64,1.742,2.5,7.137,5.393,9.448,5.393s9.631-.971,10.216-.971,5.965-1.541,4.223,2.113S1120.107,401.534,1119.523,402.1Z" transform="translate(220.115 449.693)" fill="#ccaf47" stroke="#fff" stroke-linecap="round" stroke-linejoin="round" stroke-width="1"/>
    <path id="Caminho_65" data-name="Caminho 65" d="M1223.572,179.832c-.569,5.4-3.451,16-5.192,19.264s-4.823,7.32-5.593,10.2c-.771,2.9-.771,6.364-1.541,8.477a24.791,24.791,0,0,1-3.453,6.564c-1.942,2.68-4.622,4.808-5.209,6.535s.186,2.512-1.541,5.207a62.258,62.258,0,0,1-4.238,6.549c-.954,1.219-1.88,2.683-2.9,4.085a15.4,15.4,0,0,1-4.424,4.392c-3.268,1.925-6.934,3.082-8.291,4.422-1.34,1.357-2.495.971-4.622,4.253a15.25,15.25,0,0,1-1.494,1.957,53.4,53.4,0,0,1-4.669,4.209c-1.142,1.139-5.965,3.082-4.625,3.451,1.357.4,5.98.77,6.75.971s3.668,3.282,4.238,3.654c.57.4,2.512,3.48,2.111,4.622-.369,1.172-2.111,2.9-2.881,3.666s-.771,2.128-.771,3.468.384,2.311-1.741,5.009c-2.111,2.7-6.626,8.477-7.937,9.43-1.31.971-4.578.587-5.933,1.942s-3.651,2.311-4.424,4.223c-.771,1.942-1.741,0-2.11,3.852-.4,3.852-2.713,6.75-2.9,7.706s.584,3.282,1.154,4.622,4.238,4.053,4.625,6.163c.384,2.128-.971,10.6-3.084,13.3s-4.422,4.053-5.594,5.965c-1.139,1.94-1.541,3.852-3.267,4.823s-3.852.384-5.393,4.238-4.238,8.66-4.622,9.631c-.309.785-2.39,5.67-3.19,7.521.139-.386.23-.632.277-.741a.116.116,0,0,0,.015-.045l-30.773-2.219-107.92-7.8h-7.5l-5.4-2.5s-1.925-4.038-2.512-5.209c-.57-1.139-4.622-.369-5.393-1.541-.771-1.139-1.91-3.451-2.683-4.776s-2.71-.988-3.081-1.959a53.115,53.115,0,0,1-2.125-7.5c0-.971-.186-5.024-1.727-6.936-1.541-1.94-1.741-2.9-2.712-6.364a16.553,16.553,0,0,1,0-7.32s-3.082-3.359-6.24-4.454c0,0-4.224-9.678-5.242-10.186s-2.311-3.081-2.311-4.622,6.411-7.444,8.722-12.839,15.935-32.884,18.494-39.82,14.129-28.754,16.441-32.869,1.033-6.673,1.281-10.788,1.54-3.344,3.607-5.133a47.962,47.962,0,0,1,5.393-3.852l-1.8-2.574a28.212,28.212,0,0,1-8.477,3.592c-4.112.77-5.655-1.788-6.426-2.051s-1.786-1.541-3.589-5.655-4.622-2.049-5.9-2.819-5.147-1.541-9.77-3.854c-4.622-2.294-4.87-2.571-5.9-4.622a5.631,5.631,0,0,1,0-4.36h-7.2s-1.278-1.033-3.329-2.836a14.775,14.775,0,0,1-3.852-4.1c-2.311-3.082-2.311-6.933-3.082-9.247s-3.344-2.834-4.622-5.655,0-11.048,0-11.048l1.541-23.887c.954.186,1.709.325,1.863.325.372,0,6.535-1.479,7.12-2.559s2.375-4.315,3.344-4.7,3.916,2.249,6.289,1.987c2.373-.245,1.092-3.329,2.881-4.3s6.1.322,7.134,0,3.344-3.916,5.717-5.581,3.267-.77,3.468-.77,3.914,1.6,6.225,1.8a7.6,7.6,0,0,0,4.887-1.231c1.015-.632,6.349.139,8.474.77s5.578,2.633,7.89,1.741,1.481-5.717,1.481-5.717c0-.77-2.051-3.592-3.346-4.362-1.278-.77,2.574-5.655,2.574-5.655s6.936,2.819,7.969,3.082c1.015.263,2.819,0,5.13-2.311s7.707-1.541,8.477-1.541c.4,0,2.11,1.6,3.73,3.191.092.369,1.184,4.607,0,6.641-1.234,2.11-.941,7.506.552,7.7s6.5-2.618,8.43-1.6,6.166,6.225,7.506,7a47.8,47.8,0,0,0,6.364,2.111s4.625,1.34,5.4,2.311,4.052,7.137,4.052,7.907,2.68,3.265,3.852,4.622c1.139,1.34,2.881,2.683,2.881,4.622,0,1.912.572,7.305,0,8.276s.2,2.311,1.343,4.622c1.169,2.314,9.245,7.706,9.245,9.633s.971,5.207,1.541,5.777c.587.572,1.942,1.543,2.128,2.512s.386,5.764,1.925,6.535,8.846,2.512,8.846,2.512,4.454,3.468,6.366-2.512c1.942-5.962,3.282-9.046,4.436-10.2s4.808-4.038,4.808-4.038,1.741-5.794,2.512-7.335a11.3,11.3,0,0,1,4.424-4.038c1.741-.956,3.666-1.157,5.024-2.128a14.845,14.845,0,0,0,3.651-4.221c.57-1.172,2.7-5.056,4.424-5.611a44.823,44.823,0,0,1,5.484-1.818,12.663,12.663,0,0,0,2.252-.6,5.949,5.949,0,0,0,.168.832,10.057,10.057,0,0,1,.77,3.252c.015,1.018-.339,2.789.478,3.651.293.295,4.053.386,4.053.386h3.376c.369,0,4.714,2.5,5.1,3.176s3.852,4.915,4.808,6.933,4.052,2.7,4.052,2.7a30.782,30.782,0,0,0,5.1-.386c1.541-.384,4.823-.092,5.779-.092s2.9,3.082,2.9,3.082-1.263,1.635-2.034,2.7,3.173,2.311,3.574,2.4c.369.094,5.393.77,6.255.2s7.984.664,14.64,1.635c.371.059.8.136,1.31.245a6.115,6.115,0,0,1,.679.139c.663.139,1.4.324,2.234.525.354.092.741.2,1.14.292.278.077.57.154.865.23.6.154,1.216.325,1.848.493,1.048.292,2.142.6,3.3.924.676.186,1.355.386,2.063.587.54.154,1.08.322,1.635.478,1.154.339,2.311.676,3.483,1.03.4.124.815.248,1.216.357,2.6.77,5.195,1.556,7.565,2.3.51.154,1.018.307,1.5.461l.139.047A120.187,120.187,0,0,1,1223.572,179.832Z" transform="translate(201.006 37.445)" fill="#efbf2d" stroke="#fff" stroke-linecap="round" stroke-linejoin="round" stroke-width="1"/>
    <path id="Caminho_66" data-name="Caminho 66" d="M1241.354,186.021c-.077,6.027-3.114,25.628-3.9,27.231-.307.632-1.617,2.866-3.19,5.531l-1.633-2.158s-3.267-1.246-3.653-1.541a12.636,12.636,0,0,0-4.053-1.154c-1.063,0-3.173,1.541-3.173,1.541s-3.468,1.154-3.76,1.154-2.113.094-3.56.295c-1.449.183-2.019,1.139-2.9,2.11-.862.971-2.311,2.311-3.173,3.374s-2.113,1.343-3.483,2.113-3.161.107-4.132.2a22.68,22.68,0,0,0-4.808,2.036c-.862.508-3.173-.109-4.622-.017a2.843,2.843,0,0,1-2.128-.493,6.9,6.9,0,0,1-2.495-2.2c-.386-.77-2.7-2.019-2.975-2.5-.293-.493-3.574-.585-4.144-.4-.587.186-1.266-2.2-1.544-2.4s-3.188-2.589-3.483-2.7c-.275-.092-1.91,1.927-2.4,2.789-.092.154-.2.339-.324.525a5.477,5.477,0,0,1-.369.552v.017a14.631,14.631,0,0,1-1.125,1.417,11.1,11.1,0,0,1-2.6.77,3.556,3.556,0,0,0-1.248,1.741c-.493,1.142-3.176,2.388-3.176,2.388a4,4,0,0,1-.755-1.942,9.185,9.185,0,0,0-2.049-4.746c-1.417-1.4-4.114-1.293-4.885-1.293a8.523,8.523,0,0,1-3.329-1.157c-1.154-.647-2.45-2.435-2.836-2.7s-2.172,0-5.13-.386-2.19-.384-3.084-.894-1.538-2.187-2.819-4.236c-1.293-2.066-2.45.629-3.606,1.016s-2.943,2.066-4.236,3.344a37.749,37.749,0,0,0-4.239,4.746c-1.018,1.541-1.541,1.157-2.051,1.556a7.443,7.443,0,0,1-2.958,1.142,23.112,23.112,0,0,0-2.943,0c-1.157.139,0,.77,0,2.45a5.555,5.555,0,0,1-1.679,3.589,4.574,4.574,0,0,1-1.9,1.157s-4.9,3.205-5.673,3.468-2.836-3.082-2.836-3.592a4.953,4.953,0,0,1,1.419-2.7c.894-.909.26-1.3,0-1.927a35.48,35.48,0,0,0-4.625-6.3c-1.8-1.786-2.819-1.278-5.269-3.327a7.1,7.1,0,0,1-1.4-1.665c.322-.248.508-.4.508-.4s.387-.894,4.239-3.589,5.9-3.978,7.2-5.655a24.03,24.03,0,0,0,2.45-4.887c.154-.384.248-.632.248-.632s-.139-5.006-1.157-6.671-1.8-2.574-1.8-3.468a10.6,10.6,0,0,1,1.541-4.625c.339-.538.741-1.139,1.142-1.724a70.636,70.636,0,0,0,6.857,1.848c1.927.2,4.424.77,5.393.572s3.376-.77,4.332-1.635,6.163.092,6.163.092,3.56,1.942,4.53,3.19a47.809,47.809,0,0,1,3.267,4.516c1.833,2.8,3.852,2.99,5.3,3.483s1.355-.493,2.6-2.311c1.142-1.679,2.373-2.465,3.376-3.7a1.173,1.173,0,0,1,.369.508c.106.877,2.99,2.019,3.282,2.019a18.879,18.879,0,0,0,3.282-1.434c1.541-.77,2.111,1.434,2.5,2.019a6.841,6.841,0,0,0,3.374,2.5c1.541.4,8-3.56,9.725-4.808a16.587,16.587,0,0,0,4.33-4.622c1.248-1.927,2.42-1.927,4.253-3.669,1.833-1.724,3.837.4,5.378.493s2.99,3.267,2.99,4.238a2.185,2.185,0,0,1-1.063,1.833,8.744,8.744,0,0,0-2.7,1.821c-.679.862,0,1.541,0,2.311s-1.048,1.154-2.019,1.925a3.847,3.847,0,0,0-1.249,2.7,16.678,16.678,0,0,0,2.2,2.128c.661.57.585,3.944.971,4.528a4.677,4.677,0,0,0,3.173,1.343c1.263,0,1.927-1.157,2.807-1.741.862-.57,2.4,0,3.081,0,.662,0,2.789-1.635,2.789-3.082a6.929,6.929,0,0,1,1.541-4.038,13.584,13.584,0,0,1,2.5-2.39c1.063-.939,1.647-.694,3.852-.216a19.925,19.925,0,0,0,5.393,0,7.046,7.046,0,0,0,3.19-.57,22.746,22.746,0,0,1,4.717-1.157,4.072,4.072,0,0,0,3.359-1.833,6.157,6.157,0,0,0,.679-2.774c.2-.461,2.512-1.662,4.144-2.433a3.407,3.407,0,0,1,2.99,0s5.1,2.8,5.393,2.8C1237.995,184.651,1239.781,185.374,1241.354,186.021Z" transform="translate(439.576 172.768)" fill="#efbf2d" stroke="#fff" stroke-linecap="round" stroke-linejoin="round" stroke-width="1"/>
    <path id="Caminho_67" data-name="Caminho 67" d="M1188.642,183.947a57.134,57.134,0,0,1-6.443,1c-2.125.094-2.6-.676-3.465.865a26.393,26.393,0,0,0-2.311,5.977c-.387,1.727-1.449,2.606-3.468,5.873s-2.683,5.393-3.852,7.32-1.065,3.082-3.084,4.422c-2.019,1.357-1.742,1.065-5.207,3.483-3.268,2.267-4.3,4.1-4.177,5.348a1.211,1.211,0,0,0,.03.23,7.359,7.359,0,0,1-.047,4.238c-.523,1.449-1.585,2.881-1.494,4.33.109,1.449,1.833,1.635.679,2.99s-2.405,1.248-2.589,2.22c-.2.956.475,1.34,1.432,3.173s3.282,5.487,2.512,7.228a25.977,25.977,0,0,1-2.9,4.716c-.094.121-.186.245-.277.354-1,1.234-2.235,2.019-3.376,3.7-1.249,1.818-1.155,2.789-2.6,2.311s-3.468-.679-5.3-3.483a47.782,47.782,0,0,0-3.267-4.516c-.971-1.248-4.53-3.191-4.53-3.191s-5.209-.954-6.163-.092-3.376,1.449-4.332,1.635-3.465-.372-5.393-.572a70.627,70.627,0,0,1-6.856-1.848,27.609,27.609,0,0,0,2.063-3.158c.387-.894,3.084-8.214,1.419-10.141s-4.625,0-6.165-4.238-2.435-7.842-2.435-10.154-.909-3.329-1.68-4.87a14.867,14.867,0,0,1-.77-7.32c.386-2.314,1.419-5.779.525-7.459s-4.238-4.746-5.655-6.166c-1.419-1.4-1.543-5.254-1.665-5.9a20.777,20.777,0,0,1,1.278-7.444c1.033-2.19,3.468-5.271,2.19-7.706-1.3-2.45-3.223-5.009-3.993-6.688a15.876,15.876,0,0,1-1.786-6.795,82.622,82.622,0,0,1,1.278-11.558,29.371,29.371,0,0,0,.57-3.114c.277-.03.584-.059.879-.107.909-.109,1.9-.263,2.9-.416.493-.077.971-.154,1.481-.248.815-.139,1.633-.277,2.45-.431.416-.062.83-.139,1.246-.215.679-.109,1.343-.23,1.989-.339s1.263-.2,1.85-.292c.292-.047.585-.092.848-.124.538-.077,1.048-.139,1.494-.168,4.625-.4,13.007.277,14.731.369,1.727.109,9.633,6.364,14.055,9.153,4.439,2.807,10.894,8,11.85,8.568a41.153,41.153,0,0,0,4.917,2.314c.676.2,2.494,2.8,2.494,2.8s5.024,5.578,6.366,7.119,2.99,2.405,5.393,3.468a24.586,24.586,0,0,1,6.735,4.622c.431.448,1.033,1.033,1.709,1.679.2.186.431.4.649.6.369.339.738.694,1.107,1.048a24.6,24.6,0,0,1,2.328,2.358A20.937,20.937,0,0,0,1188.642,183.947Z" transform="translate(438.197 111.306)" fill="#d8d8d8" stroke="#fff" stroke-linecap="round" stroke-linejoin="round" stroke-width="1"/>
    <path id="Caminho_68" data-name="Caminho 68" d="M960.822,240.29a7.11,7.11,0,0,0-1.635,1.7c-1.187,1.833-2.388,3.067-2.99,3.929-.03.047-.062.077-.092.124-.57.862-4.038,3.176-4.33,3.359-.292.2-5.688.4-6.827.493-1.172.094-2.219,1.449-2.99,2.7s-2.4,2.2-3.282,3.082c-.862.865-1.927,0-2.7,0a48.58,48.58,0,0,0-6.641.77c-2.311.478-.77,3.468-.862,4.716-.109,1.249-7.228,7.134-12.237,7.8s-1.154-2.5-2.019-3.946-3.852.971-4.53.986c-.679.032-3.946-1.957-4.915-2.435s-3.084-.292-3.56-.292-5.009,1.449-6.074.879a36.148,36.148,0,0,0-4.422-1.927,5.41,5.41,0,0,0-4.823,2.019c-1.927,2.111-2.789,1.741-4.531,1.741s-7.028-.493-7.414-2.034-.77-9.524-.77-13.869a34.592,34.592,0,0,1,1.248-8.568c.4-2.019-.77-2.99-.862-5.3s1.449-2.881,1.449-4.238c0-1.34-.956-2.5-1.836-2.5-.862,0-3.56,2.405-5.393,3.854-1.833,1.432-5.688,4.422-7.228,6.549-1.541,2.11-5.578,3.465-8.952,3.852s-11.266.186-13.483-.971-2.405-8.66-3.654-10.974-5.393-1.541-8.583-2.125-9.138-.386-10.2-1.541,2.7-3.852,4.038-6.057.2-3.483-1.727-6.272-5.688-5.965-6.349-6.933c-.679-.956-3.577-2.405-4.253-3.562s-1.912-4.236-2.789-5.977a7.565,7.565,0,0,1-.664-4.132c0-1.263-.292-3.282-1.541-4.144s-3.574-4.053-3.574-5.687.384-2.589,2.22-4.236.862-2.314.954-3.376c0,0,20.035,6.564,22.931,8.105s25.428,6.735,31.207,7.506,18.492,2.512,21.375,5.009,13.684,7.32,19.076,12.143,34.489,16.75,41.024,19.834c6.564,3.081,16.381,6.549,16.381,6.549l4.005,2Z" transform="translate(0 172.25)" fill="#d8d8d8" stroke="#fff" stroke-linecap="round" stroke-linejoin="round" stroke-width="1"/>
    <path id="Caminho_69" data-name="Caminho 69" d="M1082.522,146.992c-.508,2.465-2.264,4.085-2,6.517a12.66,12.66,0,0,1-2.252.6,44.821,44.821,0,0,0-5.484,1.818c-1.727.555-3.854,4.439-4.424,5.611a14.844,14.844,0,0,1-3.651,4.221c-1.358.971-3.282,1.172-5.024,2.128a11.3,11.3,0,0,0-4.424,4.038c-.77,1.541-2.512,7.335-2.512,7.335s-3.651,2.881-4.808,4.038-2.494,4.238-4.436,10.2c-1.913,5.98-6.366,2.512-6.366,2.512s-7.3-1.741-8.846-2.512-1.741-5.578-1.925-6.535-1.541-1.94-2.128-2.512c-.57-.57-1.541-3.852-1.541-5.777s-8.076-7.32-9.245-9.633c-1.142-2.311-1.912-3.651-1.343-4.622s0-6.364,0-8.276c0-1.94-1.742-3.282-2.881-4.622-1.172-1.357-3.852-3.852-3.852-4.622s-3.282-6.936-4.053-7.907-5.4-2.311-5.4-2.311a47.8,47.8,0,0,1-6.364-2.111c-1.34-.77-5.578-5.98-7.506-7s-6.934,1.786-8.43,1.6-1.786-5.593-.552-7.7c1.184-2.034.092-6.272,0-6.641l.015.015c1.526,1.494,2.928,2.958,2.928,2.958s8.737,1.8,9.507,1.541,8.477-1.278,9.755-1.8c1.3-.51,9,.26,9,.26s5.393,1.541,6.166,1.541,8.722-2.571,10.525-4.622,5.9-6.426,7.441-12.589,10.788-19,12.591-20.543,4.115-7.2,4.36-9.507a2.775,2.775,0,0,1,2.314-2.559l7.458,5.13.8,2.219a39.826,39.826,0,0,1,.57,4.424c0,1.248-.092,3.465-.092,5.1s.862,5.685,1.355,10.124,3.362,10.109,3.362,11.449c0,1.357,2.034,3.082,2.512,4.531s1.063,3.946,1.541,4.345c.478.372,2.789.186,3.468.186a10.176,10.176,0,0,1,3.651,1.449c.77.57.971,3.359,1.833,6.549.865,3.173,1.833,1.727,2.219,1.833a33.465,33.465,0,0,1,5.67,2.789c.879.77,1.449,5.4,1.741,7.706S1082.54,146.93,1082.522,146.992Z" transform="translate(256.251 12.405)" fill="#d8d8d8" stroke="#fff" stroke-linecap="round" stroke-linejoin="round" stroke-width="1"/>
    <path id="Caminho_70" data-name="Caminho 70" d="M1016.675,153.062l-1.541,23.887s-.262-.047-.755-.109c-.094-.015-.2-.03-.31-.045-.062-.017-.124-.017-.2-.032s-.2-.03-.322-.047-.215-.03-.339-.045c-.2-.032-.416-.062-.647-.092-1.387-.186-3.238-.433-5.3-.649-.233-.03-.5-.045-.741-.077-.587-.062-1.2-.124-1.818-.186-.354-.03-.723-.059-1.095-.092-.322-.03-.647-.047-.954-.077-.525-.047-1.065-.077-1.588-.107a1.193,1.193,0,0,1-.248-.017c-.2-.015-.4-.015-.585-.03-.693-.032-1.372-.062-2.034-.077-4.625-.139-8.524.215-9.017,1.679,0,0-2.311,7.582-3.852,10.017s-5.254,8.474-4.362,9.383,2.435,1.281,2.7,2.311-1.694,2.559-2.834,2.945a20.02,20.02,0,0,1-4.1,1.154c-.894,0-3.344-1.788-3.344-1.788s-1.4-3.465-2.821-4.236-7.966-3.344-8.861-2.314-5.779,3.208-6.287,5.519c-.525,2.311.632,3.589.894,5.393a3.627,3.627,0,0,1-1.033,3.344,3.462,3.462,0,0,0-.894,2.7c0,1.4.124,1.925,1.417,3.852s2.175,2.7,1.541,3.329-1.925,0-2.958-.634-1.541-3.6-3.468-3.6-2.819.386-3.342-.248-3.208-4.885-3.468-5.269-2.559-3.731-4.87-4.885-6.3-2.7-5.779-3.592c.508-.894,4.238-2.958,5.516-3.852a5.85,5.85,0,0,0,2.051-4.238c0-1.278.909-3.976-1.665-6.287s-4.748-9.386-4.885-11.434-1.11-3.082-1.065-4.5c.047-1.4-1.077-3.713,0-5.517s3.376-4.746,2.745-5.779c-.649-1.033-2.452-5.393-3.223-5.779s-6.671-5.13-6.671-5.13a21.612,21.612,0,0,1,1.278-5.534c1.033-2.433,1.927-4.1.646-5.254a20.646,20.646,0,0,0-5.393-2.958c-.646-.124-4.746-1.281-4.746-1.281a24.058,24.058,0,0,0-3.684-1.741c.339-1.494.478-3.344.6-3.852.183-.832-1.419-1.989-1.62-2.187a8.061,8.061,0,0,0-3.852,1.033c-.694.647-3.976.059-6.086-.263a5.108,5.108,0,0,1-.726-.154.08.08,0,0,0-.059-.017c-.139-.045-.263-.092-.372-.139l-.092-.045c-.109-.062-.216-.109-.31-.171-.03-.015-.044-.03-.077-.047-.059-.045-.121-.077-.183-.121a1.426,1.426,0,0,1-.156-.124,3.1,3.1,0,0,1-.446-.463H901l-.183-.23a2.183,2.183,0,0,1-.186-.263c-.03-.047-.062-.092-.077-.121-.047-.062-.077-.109-.109-.156a6.515,6.515,0,0,1,.124-3.651,7.7,7.7,0,0,0-.124-3.991c-.322-1.4-2.373-2.821-3.79-4.1-1.417-1.3-1.479-4.761-1.479-5.009s-.124-2.574-.124-3.344,1.095-1.095,1.6-2.049a4.094,4.094,0,0,0,.263-2.7c-.139-.647-3.914-3.22-6.1-5.009a95.62,95.62,0,0,1-8.214-6.936c-2.7-2.772-1.216-4.313-1.216-4.313s4.484,3.082,6.225,3.666a22.413,22.413,0,0,0,6.411.894c2.066,0,1.927,1.157,2,1.479a25.955,25.955,0,0,0,3.205,3.468c.325.2,2.249-.894,2.757-1.154s4.749,1.417,5.132,1.541a13.821,13.821,0,0,0,3.669.523c.57-.2,3.327-2.125,4.177-2.45.83-.325,2.172,1.278,2.5,1.6s4.174,3.79,4.36,4.761a5.556,5.556,0,0,0,1.417,2.113,4.787,4.787,0,0,0,1.665-1.095,5.708,5.708,0,0,1,1.741-1.281c.263-.121,1.541.971,2.373.51s.51-6.1.386-7.057,5.147-3.53,5.841-3.792,5.593.832,5.593.832,3.79.2,4.87-.384a60.68,60.68,0,0,1,6.1-2.113,7.919,7.919,0,0,0,3.73-2.834c.647-1.142,4.808-2.175,5.517-2.621.708-.463,4.761-.523,6.809-.832s.956-2,1.219-2.958c.262-.971,5.9-4.5,7.013-5.4a3.8,3.8,0,0,0,1.34-3.02c0-.894-.832-1.665-1.219-2.373a2.439,2.439,0,0,1,.632-2.373c.387-.2,3.406-.587,3.993-.971.57-.386,4.808-.124,5.962.446,1.157.587,3.282,6.428,3.143,6.75a57.991,57.991,0,0,1-2.557,5.4,8.1,8.1,0,0,0-.909,3.465s7.58,1.6,8.09,1.865.523,1.216.523,2.249a21.251,21.251,0,0,0,.832,4.3c.325,1.08,4.238,3.914,4.176,5.578s-6.163,4.885-6.163,4.885-.525,3.406-.525,3.79a15.268,15.268,0,0,1,.325,3.976c-.248,1.357-2.252,3.344-2.7,5.4s-1.095,9.368-1.157,9.832a30.6,30.6,0,0,0,.649,6.225c.446,1.219,4.56,3.592,5.254,5.4.708,1.786-.508,5.068-.508,5.068s1.925,4.114,2.311,4.885,3.99,3.916,4.56,4.87c.572.971,4.5,3.792,5.194,4.238a46.205,46.205,0,0,0,5.333,2.311C1013.054,152.324,1015.1,152.755,1016.675,153.062Z" transform="translate(121.35 0)" fill="#d8d8d8" stroke="#fff" stroke-linecap="round" stroke-linejoin="round" stroke-width="1"/>
    <path id="Caminho_71" data-name="Caminho 71" d="M1055.055,259.158v3.081c0,.493-.694.679-1.263,1.263s-.57,2.96-.57,3.592,1.249,1.6-.2,1.987a34.16,34.16,0,0,1-5.286.77,49.394,49.394,0,0,1-7.612-.676c-3.76-.478-6.75-.478-7.612-.679a2.264,2.264,0,0,1-.862-3.359,14.033,14.033,0,0,1,2.017-1.974c.386-.337,1.635-1.016,1.635-1.308s-.57-2.2.2-3.468,2.11-2.99,3.374-2.99c1.248,0,5.779-.186,6.349,0a22.723,22.723,0,0,0,3.282.879c.463,0,4.038.183,4.038.183Z" transform="translate(343.241 286.837)" fill="#ccaf47" stroke="#fff" stroke-linecap="round" stroke-linejoin="round" stroke-width="1"/>
    <path id="Caminho_72" data-name="Caminho 72" d="M1194.384,197.412c-2.743,4.64-6.319,10.572-6.919,11.605-.971,1.65-8.105,6.842-9.74,8.583s-9.525,11.358-12.235,15.209c-.171.248-.339.463-.493.664-1.157-1.2-2.39-2.544-2.683-2.975-.57-.862-2.99-3.082-3.468-3.852s-5.284-3.468-6.254-4.238-6.458-2.975-8.477-4.915a9.194,9.194,0,0,0-2.143-1.419c-.322-.168-.661-.324-1-.493-.584-.277-1.2-.54-1.85-.832-.847-.369-1.709-.77-2.589-1.234-.384-.2-.771-.4-1.154-.632-.077-.045-.171-.092-.263-.154-.369-.23-.755-.463-1.11-.723-1.88-1.325-4.885-1.895-7.29-2.143a2.5,2.5,0,0,1-.062-.523c0-1.018-1.925-2.559-2.833-3.854-.154-.216-.292-.431-.4-.617,0,0,2.682-1.246,3.176-2.388a3.556,3.556,0,0,1,1.248-1.741,11.091,11.091,0,0,0,2.6-.77,14.626,14.626,0,0,0,1.125-1.417v-.017a5.434,5.434,0,0,0,.369-.552c.124-.186.233-.372.324-.525.493-.862,2.128-2.881,2.4-2.789.3.109,3.191,2.512,3.483,2.7s.956,2.589,1.543,2.4c.57-.183,3.852-.092,4.144.4s2.589,1.727,2.975,2.5a6.906,6.906,0,0,0,2.495,2.2,2.842,2.842,0,0,0,2.128.493c1.449-.092,3.76.525,4.622.017a22.683,22.683,0,0,1,4.808-2.036c.971-.092,2.76.572,4.132-.2s2.618-1.065,3.483-2.113,2.311-2.4,3.173-3.374c.879-.971,1.449-1.927,2.9-2.11,1.447-.2,3.265-.295,3.56-.295s3.76-1.154,3.76-1.154,2.111-1.541,3.173-1.541a12.634,12.634,0,0,1,4.052,1.154c.386.295,3.654,1.541,3.654,1.541Z" transform="translate(479.456 194.14)" fill="#d8d8d8" stroke="#fff" stroke-linecap="round" stroke-linejoin="round" stroke-width="1"/>
    <path id="Caminho_73" data-name="Caminho 73" d="M1208.33,203.385c-1.573-.647-3.359-1.37-3.515-1.37-.293,0-5.393-2.8-5.393-2.8a3.408,3.408,0,0,0-2.99,0c-1.632.77-3.943,1.972-4.144,2.433a6.153,6.153,0,0,1-.679,2.774,4.072,4.072,0,0,1-3.359,1.833,22.742,22.742,0,0,0-4.717,1.157,7.047,7.047,0,0,1-3.19.57,19.925,19.925,0,0,1-5.393,0c-2.2-.478-2.789-.723-3.852.216a13.588,13.588,0,0,0-2.5,2.39,6.931,6.931,0,0,0-1.541,4.038c0,1.447-2.128,3.082-2.789,3.082-.679,0-2.219-.57-3.081,0-.88.585-1.544,1.741-2.807,1.741a4.677,4.677,0,0,1-3.173-1.343c-.386-.585-.309-3.958-.971-4.528a16.687,16.687,0,0,1-2.2-2.128,3.847,3.847,0,0,1,1.249-2.7c.971-.77,2.019-1.154,2.019-1.925s-.679-1.449,0-2.311a8.745,8.745,0,0,1,2.7-1.821,2.185,2.185,0,0,0,1.063-1.833c0-.971-1.449-4.144-2.99-4.238s-3.545-2.217-5.378-.493c-1.833,1.741-3,1.741-4.253,3.669a16.585,16.585,0,0,1-4.33,4.622c-1.727,1.248-8.184,5.209-9.725,4.808a6.84,6.84,0,0,1-3.374-2.5c-.387-.585-.957-2.789-2.5-2.019a18.871,18.871,0,0,1-3.282,1.434c-.292,0-3.176-1.142-3.282-2.019a1.172,1.172,0,0,0-.369-.508c.092-.109.183-.233.277-.354a25.985,25.985,0,0,0,2.9-4.716c.77-1.741-1.541-5.4-2.512-7.228s-1.633-2.217-1.432-3.173c.183-.971,1.432-.865,2.589-2.219s-.57-1.541-.679-2.99c-.092-1.449.971-2.881,1.494-4.33a7.36,7.36,0,0,0,.047-4.238,1.211,1.211,0,0,1-.03-.23,3.272,3.272,0,0,0,1.293-.154,1.362,1.362,0,0,1,1.726.57s3.374,3.082,3.574,3.451,3.359.894,3.946.894a12.615,12.615,0,0,0,4.622-2.125c2.22-1.449,1.048-1.157,2.019-2.591s1.34-2.034,2.405-2.6,2.9-.384,3.958-1.016,1.912-.817,2.759-1.883c.832-1.063,3.114-1.34,5.7-2.2,2.588-.879.678,2.589.678,2.881s-.664,2.311-.678,3.082-2.5.478-3.359.85c-.88.369-.295,1.37-1.449,2.911s-.862,1.249-.862,1.927.183,3.082.57,3.359,1.263,2.807,1.833,3.282a1.322,1.322,0,0,0,1.34.094,33.741,33.741,0,0,1,3.376-1.157c.384,0,2.418,1.635,3.188,1.541s1.142-1.048,2.314-1.818c1.139-.77,1.541.57,2.358.956s.432,2.9.615,3.852c.2.956,1.741,1.449,2.311,1.449.587,0,1.741-1.357,2.1-2.034s1.372-.77,1.865-1.434a1,1,0,0,0-.292-1.449,5.385,5.385,0,0,1-.77-2.7c.092-.587.956-.865,1.248-1.449s0-1.048-.864-2.311c-.26-.386-.369-.525-.416-.587,0,.017.094.215-.354-.277-.771-.862-.293-1.355,0-2.7.277-1.343,1.635-1.248,2.5-1.449s2.128,1.449,2.807,2.125a4.8,4.8,0,0,0,1.34.956,13.357,13.357,0,0,1,2.881,0c1.263.2,1.541,0,1.541,0a22.069,22.069,0,0,0,3.282,1.449c.478,0,4.917.092,5.3-.292.386-.4,2.5.2,2.789,0s3.468,2.512,3.468,2.512,2.311-.2,4.917-.4a20.275,20.275,0,0,0,4.422-1.063c1.048,3.7,2.019,7.32,2.512,9.554,1.157,5.3,1.048,10.2,1.541,14.053A11.635,11.635,0,0,1,1208.33,203.385Z" transform="translate(472.599 155.405)" fill="#d8d8d8" stroke="#fff" stroke-linecap="round" stroke-linejoin="round" stroke-width="1"/>
    <path id="Caminho_74" data-name="Caminho 74" d="M1202.176,194.385a20.278,20.278,0,0,1-4.422,1.063c-2.606.2-4.917.4-4.917.4s-3.175-2.7-3.468-2.512-2.4-.4-2.789,0c-.384.384-4.823.292-5.3.292A22.073,22.073,0,0,1,1178,192.18s-.277.2-1.541,0a13.357,13.357,0,0,0-2.881,0,4.8,4.8,0,0,1-1.34-.956c-.679-.676-1.942-2.311-2.807-2.125s-2.22.107-2.5,1.449c-.292,1.34-.77,1.833,0,2.7.448.493.354.295.354.277.047.062.156.2.416.587.865,1.263,1.157,1.741.865,2.311s-1.157.862-1.248,1.449a5.388,5.388,0,0,0,.77,2.7,1,1,0,0,1,.292,1.449c-.493.664-1.511.77-1.865,1.434s-1.509,2.034-2.1,2.034c-.57,0-2.11-.493-2.311-1.449-.183-.956.215-3.468-.615-3.852s-1.219-1.727-2.358-.956c-1.172.77-1.543,1.727-2.314,1.818s-2.8-1.541-3.188-1.541a33.741,33.741,0,0,0-3.376,1.157,1.322,1.322,0,0,1-1.34-.094c-.57-.476-1.449-3-1.833-3.282s-.57-2.68-.57-3.359-.295-.384.862-1.927.57-2.541,1.449-2.911c.862-.372,3.344-.077,3.359-.85s.678-2.789.678-3.082,1.91-3.76-.678-2.881c-2.589.862-4.87,1.139-5.7,2.2-.847,1.065-1.709,1.248-2.759,1.883s-2.9.431-3.958,1.016-1.434,1.157-2.405,2.6.2,1.142-2.019,2.591a12.616,12.616,0,0,1-4.622,2.125c-.587,0-3.76-.523-3.946-.894s-3.574-3.451-3.574-3.451a1.363,1.363,0,0,0-1.726-.57,3.27,3.27,0,0,1-1.293.154c-.124-1.248.909-3.081,4.177-5.348,3.465-2.418,3.188-2.125,5.207-3.483,2.019-1.34,1.927-2.5,3.084-4.422s1.833-4.053,3.852-7.32,3.081-4.147,3.468-5.873a26.4,26.4,0,0,1,2.311-5.977c.862-1.541,1.34-.77,3.465-.865a57.134,57.134,0,0,0,6.443-1,15.725,15.725,0,0,0,2.326,1.387c1.34.585,4.224.679,5.578,2.125s3.854.865,7.892,1.434,4.915-.094,8.383-.77,8.769.2,10.6.585c1.818.386,5.87,5.965,7.027,7.706s3.374,10.4,4.531,13.961C1199.186,184.12,1200.759,189.329,1202.176,194.385Z" transform="translate(474.654 139.611)" fill="#d8d8d8" stroke="#fff" stroke-linecap="round" stroke-linejoin="round" stroke-width="1"/>
    <path id="Caminho_75" data-name="Caminho 75" d="M1165.448,223.154a7.876,7.876,0,0,1-.617.708c-.124.124-.248.23-.372.339a2.754,2.754,0,0,1-.662.431,1.4,1.4,0,0,1-.23.077,1.43,1.43,0,0,1-.218.062c-.847.124-1.432-.493-2.217-.154a23.98,23.98,0,0,0-3.976,3.1c-1.048.924-1.974,1.774-2.373,2.1a9.844,9.844,0,0,0-1.512,1.88,40.281,40.281,0,0,0-3.22,5.254c-.094.2-.262.557-.493,1.033-.095.171-.2.372-.31.572a.788.788,0,0,1-.077.168c-.077.139-.154.277-.23.431-.493.924-1.11,2.081-1.774,3.329-.322.585-.647,1.187-.986,1.8-.153.307-.322.617-.493.924-.278.525-.57,1.063-.847,1.588a19.575,19.575,0,0,1-2.465-.386c-1.157-.384-3.329.525-3.854,0-.508-.508-5.517,0-5.517,0a12.752,12.752,0,0,1-3.852-4.1c-1.417-2.574-.894-1.543-1.278-2.96a17,17,0,0,0-1.3-3.852c-.771-1.541-1.157-1.541-1.927-2.96a10.966,10.966,0,0,1-1.541-5.115c0-1.91,2.19-.785,3.854-1.3s1.541,0,1.541,0,1.925,1.157,2.311,1.281,3.082-.649,3.22-1.927-.263-1.665-.909-3.976-.124-1.927-.124-1.927,1.8-2.958,1.8-3.79a3.622,3.622,0,0,0-1.157-2.512c-.292-.292-.8-.924-1.355-1.632v-.017a23.171,23.171,0,0,0-2.636-2.973c-.894-.632-1.541-3.329-1.541-4.625a42.778,42.778,0,0,0-.956-4.484c2.405.248,5.41.817,7.29,2.143.355.26.741.493,1.11.723.092.062.186.109.263.154.384.233.77.431,1.154.632.879.463,1.741.865,2.589,1.234.649.292,1.266.555,1.85.832.339.168.679.324,1,.493a9.194,9.194,0,0,1,2.143,1.419c2.019,1.94,7.505,4.144,8.477,4.915s5.779,3.468,6.254,4.238,2.9,2.99,3.468,3.852C1163.058,220.61,1164.291,221.951,1165.448,223.154Z" transform="translate(479.005 204.459)" fill="#d8d8d8" stroke="#fff" stroke-linecap="round" stroke-linejoin="round" stroke-width="1"/>
    <path id="Caminho_76" data-name="Caminho 76" d="M1141.011,290.222c-1.172,2.405-.292,5.965-.094,8.184s0,12.128,0,12.128-.77,5.977-1.063,6.933c-.277.971-6.349,3.961-7.612,5.3-1.249,1.357-2.589,4.716-4.33,7.429-1.726,2.68-4.037,8.474-5.687,10.971-1.632,2.5-3.359,2.789-4.514,4.531a8.865,8.865,0,0,0-1.079,2.527,14.965,14.965,0,0,0-.464,2.1,16.2,16.2,0,0,0-4.652,6.255h-2.281l-5.1-1.355s-.324-.015-.864-.062c-1.863-.124-6.272-.478-7.612-1.08-1.741-.77-1.541-.971-1.541-3.282s-1.172-3.466-1.742-4.422c-.523-.909-.077-2.96-.307-4.176-.032-.092-.047-.186-.077-.263a37.814,37.814,0,0,1-1.357-6.75c0-1.34,2.9-1.724,5.209-2.68s3.267-.2,4.622-1.741a40.117,40.117,0,0,1,4.469-4.238c.8-.585.54-4.439,1.511-5.977s2.881-4.811,5.192-8.477,0-4.808-.2-6.349-4.424-3.852-6.166-4.808c-1.726-.971,3.483-.4,5.024-2.128s0-2.5-.2-3.852a4.259,4.259,0,0,0-2.311-3.082c-1.154-.587-1.154-3.468-1.154-5.209s3.465-2.311,5.006-2.851,1.742-.23,3.468-.03.957-.386,1.157-1.157,3.465-3.852,3.465-3.852l8.093,1.033a1.523,1.523,0,0,0,.476.493c1.234.924,4.392,2.249,5.041,3.22.77,1.157,7.2,4.622,7.2,4.622l1.2.632C1141.457,289.283,1141.212,289.791,1141.011,290.222Z" transform="translate(431.029 321.465)" fill="#b6211d" stroke="#fff" stroke-linecap="round" stroke-linejoin="round" stroke-width="1"/>
    <path id="Caminho_77" data-name="Caminho 77" d="M1122.792,280.4c-1.033,1.3-3.6,3.607-5.531,5.655s-6.8,6.166-8.09,7.83-6.411,8.613-5.779,9.894,3.468,2.819,4.5,3.465,4.9.649,5.41,1.419c.493.77,2.68,3.082,1.263,3.465s-5.254.386-5.641.77-.263,2.559-.263,2.559,6.027,1.157,5.071,3.344a2.589,2.589,0,0,1-.216.4,2.625,2.625,0,0,1-.909.785,3.293,3.293,0,0,1-.756.339,2.381,2.381,0,0,1-.354.109,11.63,11.63,0,0,1-1.139.26h-.015c-.094.017-.186.032-.263.047-.171.032-.324.062-.448.092-.384.094-.647.216-.708.4-.263.77,1.927,7.582,2.435,7.966s2.051.649,2.373,1.281,1.218,1.293,0,2.574a6.633,6.633,0,0,0-1.6,4.236,2.557,2.557,0,0,0,1.6,2.051c.587.263,1.357,1.927.832,2.45-.508.508-.617.77-1.263,1.541a48.706,48.706,0,0,0-5.995-.832,27.509,27.509,0,0,0-5.578.57c-1.727.386-5.209,3.285-6.75,4.823s-4.808.956-6.534.956c-1.742,0-2.312-.585-3.483-1.541-1.139-.954-2.494-.77-4.082-.77s.631,3.082-.139,4.038.57,1.541,0,3.02c-.587,1.481-3.082-1.278-3.082-1.278s-9.448-3.468-10.6-3.468-2.125.77-2.9,1a7.089,7.089,0,0,1-6.163-1.588c-2.314-2.111,0-2.683,0-3.852,0-1.142-2.113-3.267-3.267-3.654s-1.157,1.541-2.9,2.7c-1.726,1.157-1.34-.386-3.267-2.7s-.954.2-3.267,1.541-1.942,4.424-2.311,6.166a1.574,1.574,0,0,1-1.942,1.34l-4.622-2.11s-3.451-3.654-4.994-5.194-4.622,0-5.393,0a12.782,12.782,0,0,1-5.024-1.942c-2.326-1.34-.369-4.622,0-6.7s1.172-5.038.971-5.809-1.927,2.311-3.282,4.622a41.075,41.075,0,0,0-2.683,7.119,15.236,15.236,0,0,0-3.081-1.139c-1.172-.2-.585-4.823-.585-4.823s-.278-6.272-.51-11.744c-.154-3.527-.26-6.733-.26-7.719,0-2.5-2.128-5.4-2.128-6.351s2.128-4.038,2.9-7.119.183-6.748,1.724-12.527c1.234-4.607,4.917-14.271,6.351-17.969a1.976,1.976,0,0,1,.077-.2,1.571,1.571,0,0,1,.122-.277l.094-.23c.8-1.85,2.881-6.735,3.19-7.521.384-.971,3.082-5.779,4.623-9.631s3.668-3.267,5.393-4.238,2.128-2.883,3.267-4.823c1.172-1.912,3.483-3.267,5.594-5.965s3.468-11.172,3.084-13.3c-.386-2.111-4.055-4.808-4.625-6.163s-1.34-3.651-1.154-4.622,2.5-3.854,2.9-7.706c.369-3.852,1.34-1.91,2.11-3.852.773-1.912,3.084-2.883,4.424-4.223s4.622-.971,5.933-1.942c1.31-.954,5.826-6.733,7.937-9.43,2.126-2.7,1.741-3.666,1.741-5.009s0-2.7.77-3.468,2.512-2.494,2.881-3.666c.4-1.142-1.541-4.223-2.111-4.622-.57-.372-3.468-3.453-4.238-3.654s-5.393-.57-6.75-.971c-1.34-.369,3.483-2.311,4.625-3.451a53.441,53.441,0,0,0,4.669-4.209l1.9,4.209a36.228,36.228,0,0,1,4.808,0c1.541.183,2.311-1.942,4.238,0,1.925,1.91,5.593,4.422,6.55,5.962s3.081,5.195,3.265,7.706c.2,2.512-.183,9.445,0,11.358.2,1.94.062,6.564.062,6.564s-1.2,10.017-2.943,11.358-6.163,3.082-5.009,4.053,2.5,1.925,4.038,1.541c1.541-.4,1.942-1.741,1.942.092a9.192,9.192,0,0,0,.956,4.9c.954,1.94,4.038,4.622,4.622,5.794.584,1.14,3.668,6.535,4.238,5.962s2.881-3.081,5.393-3.651,5.194-.971,5.965.369a20.52,20.52,0,0,1,1.742,6.75c.2,2.311-.971,5.578-1.541,5.578s-1.927-.77-3.282,0-2.113-.369-2.883,1.741-.384,3.282-1.541,5.393-1.925,3.854-3.082,5.6a3.826,3.826,0,0,0,.894,2.234c.77.647,1.541-.186,2.063,1.541s.186,3.082,1.018,3.991c.847.894,3.344,1.34,4.053,1.788s1.664-.956,2.373,1.417,1.095,3.082.956,3.406-2.621,2.049-2.621,3.082,2.25,2.559,2.559,2.7a2.721,2.721,0,0,1,1.6,1.865c.464,1.34.387,3.327,1.234,4.546s2.311,2.512,2.757,2.512,7,.708,7,.708,3.465-.062,3.852,0c.077.015.245-.124.463-.354l.183.354A1.431,1.431,0,0,1,1122.792,280.4Z" transform="translate(311.11 141.953)" fill="#d8d8d8" stroke="#fff" stroke-linecap="round" stroke-linejoin="round" stroke-width="1"/>
    <path id="Caminho_78" data-name="Caminho 78" d="M1101.475,335.167c0,.77.478,3.944.478,3.944s-2.125,4.917-2.7,4.917-6.163.183-8.09,2.7-1.355,6.549-1.355,8.677c0,2.11,1.57,3.852-.077,4.808s-1.833-2.5-4.917,1.541-4.283,5.209-3.683,6.163.787,5.009.787,5.009a18.743,18.743,0,0,0-3.669,1.741,4.382,4.382,0,0,0-.956,4.038c.386,1.157-.384,1.125-3.082,3.161s-6.163,3.775-7.119,4.729l-.124.124c-.263.23-.785.708-1.494,1.34-.2.186-.431.386-.678.6-.354.324-.756.664-1.172,1.033-.215.2-.446.4-.694.6-2.341,2.051-5.254,4.531-7.6,6.458-.216.168-.416.339-.617.508h-.015c-.168.139-.322.277-.493.4-.307.245-.6.493-.877.694a.445.445,0,0,1-.109.092,6.8,6.8,0,0,1-.555.416c-.169.124-.322.248-.478.354-.292.216-.54.372-.708.478a57.5,57.5,0,0,0-8.675,6.75c-1.142,1.357-2.314,5.578-2.314,6.349s.773,1.942-.954,3.082c-1.727,1.172-3.668.77-4.238,3.282s-.386,4.053-.971,5.965c-.57,1.942,0,2.512-2.311,3.852a10.993,10.993,0,0,1-4.622,1.449c-.372-.862-2.2-3.651-2.314-4.038-.092-.384-4.9-.2-5.67.186s-3.574,1.741-4.439,2.311-5.393-.186-8.953-.77-2.881-1.927-2.881-3.359c0-1.449-1.065-2.9-2.036-4.823-.954-1.927.2-3.654.2-4.716a9.348,9.348,0,0,0-.478-4.053c-.676-1.635-2.033-2.5-2.125-4.716s.862-3.176,1.154-5.487-1.154-2.4-1.34-3.082-.676-2.8-.971-4.345-3.081-3.082-5.192-4.224c-2.128-1.172-1.942,0-3.282,0s-4.424-.971-5.487-2.42a4.5,4.5,0,0,0-3.468-2.111c-1.155,0-1.447,2.883-4.345,3.56-2.881.679-12.512,0-14.917,0s-4.531-1.541-6.165-3.344-1.541.062-3.374-.03-2.99.092-4.716,0-1.447-2.019-.2-2.5,1.355-3.76,1.355-5.393-.862-1.358-1.541-2.8.862-2.591.862-2.591,1.54-5.484,2.219-9.339a15.2,15.2,0,0,0-1.355-8.967A38.124,38.124,0,0,0,944,347.3c-1.727-2.405-1.541-8.37-1.355-8.955s5.3-1.434,5.3-1.434a2.211,2.211,0,0,0-.186-2.9c-1.355-1.449-3.173-1.632-4.345-2.789-1.142-1.157-.094-2.6.4-3.669s4.716-10.2,5.581-11.85c.862-1.632,2.217.295,3.082,0,.862-.277.478-3.359,0-5.578s-.865-1.925-.771-2.494c.092-.587.954-4.147,1.447-7.137s1.248-2.881,1.927-3.468c.664-.585,2.311-1.541,2.2-2.789s-2.113-2.6-3.359-4.437a7.722,7.722,0,0,1-.864-4.268c.6,0,1.234-.017,1.912-.062,2.9-.186,4.253,0,6.163-.956,1.942-.971,7.521-5.4,9.448-9.061s6.364-.77,8.274-.77c1.942,0,2.128-.186,3.081-1.541.971-1.357,2.9-.956,5.026-.956,2.111,0,11.925,3.267,12.7,3.453s7.335,4.823,10.986,5.024c3.654.183,3.282-.971,3.854-1.741s3.466-1.927,6.733-2.7,3.282,2.9,4.823,4.038a20.625,20.625,0,0,0,3.146,1.942s2.633-1.172,3.589-2.9c.971-1.727,1.942-1.727,1.942-1.727s5.578-5.393,6.163-5.393,1.912,4.994,1.912,6.535-1.343,2.512-2.682,4.053a7.3,7.3,0,0,0-1.942,3.651c0,.587,2.712,3.669,3.282,3.669s4.625-.384,5.6-.384c.954,0,5.762,2.11,7.7,2.11a2.144,2.144,0,0,0,0,3.483c2.113,1.724,7.506,2.11,7.506,2.11s-.971,3.852-1.741,4.424-2.683,1.94-1.139,2.9,1.34,2.7,4.035,1.541-.183-1.727,3.669-1.355c3.852.4,4.422-.186,5.764,1.741s4.253,3.466,6.933,5.593c2.712,2.111,9.061,2.68,10.419,2.881,1.34.2,5.393,1.741,5.962,2.7s.971,1.727,3.282,2.9c2.311,1.142,3.082,3.654,4.716,5.578-1.927,1.635-3.468,2.314-3.468,3.562S1101.475,334.4,1101.475,335.167Z" transform="translate(212.257 311.673)" fill="#ccaf47" stroke="#fff" stroke-linecap="round" stroke-linejoin="round" stroke-width="1"/>
    <path id="Caminho_79" data-name="Caminho 79" d="M1167.575,237.455a.115.115,0,0,1-.015.045c-.047.109-.139.354-.277.741l-.094.23a1.57,1.57,0,0,0-.121.277,1.907,1.907,0,0,0-.077.2c-1.435,3.7-5.118,13.362-6.352,17.969-1.541,5.779-.954,9.445-1.724,12.527s-2.9,6.166-2.9,7.119,2.128,3.854,2.128,6.351c0,.986.106,4.191.26,7.719.233,5.472.51,11.744.51,11.744s-.587,4.622.585,4.823a15.24,15.24,0,0,1,3.081,1.139l-2.125,5.024a43.919,43.919,0,0,0-1.358,5.764c0,1.172-.369,2.311-1.91,4.823s-3.282.971-3.282,6.364,1.154,6.166,0,8.662-3.653,3.267-4.424,7.32,0,6.364-.584,8.474-8.09,3.468-10.2,6.735c-2.128,3.282-2.512,6.75-4.439,10.6s-3.129,6.349-5.41,7.32c-2.3.971-5.963.57-8.073,1.927s-2.311,4.038-5.4,5.393-4.623,1.157-4.623,3.081.971,2.128.971,4.238.57,4.424-3.282,7.32c-.215.168-.431.339-.646.54-.032.03-.079.062-.109.092-.231.216-.449.431-.679.679-.26.292-.54.6-.785.924-.248.292-.478.6-.694.909a5.557,5.557,0,0,0-.339.478c-.124.168-.23.339-.339.508-.216.324-.431.664-.632,1.018s-.416.708-.6,1.048q-.3.531-.555,1.063c-.032.047-.047.094-.079.139-.122.277-.26.54-.384.817q-.393.832-.693,1.618a4.4,4.4,0,0,0-.168.431c-.124.31-.215.6-.31.894-.062.216-.124.4-.183.6s-.094.384-.141.555a2.677,2.677,0,0,0-.092.446.941.941,0,0,0-.03.2,2.28,2.28,0,0,0-.032.277,1.466,1.466,0,0,0-.015.248c0,2.509,0,4.823.186,6.549s2.125,4.236,2.125,5.579,1.142,3.081-.77,3.081c-1.942,0-6.75-2.11-7.7-2.11-.971,0-5.024.384-5.6.384s-3.282-3.082-3.282-3.669a7.3,7.3,0,0,1,1.942-3.651c1.34-1.541,2.683-2.512,2.683-4.052s-1.343-6.535-1.912-6.535-6.163,5.393-6.163,5.393-.971,0-1.942,1.727c-.956,1.727-3.589,2.9-3.589,2.9a20.618,20.618,0,0,1-3.146-1.942c-1.541-1.142-1.541-4.808-4.823-4.038s-6.163,1.927-6.733,2.7-.2,1.925-3.854,1.741c-3.651-.2-10.216-4.823-10.986-5.024s-10.587-3.453-12.7-3.453c-2.128,0-4.055-.4-5.026.956-.954,1.355-1.14,1.541-3.081,1.541-1.91,0-6.349-2.9-8.274.77s-7.506,8.09-9.448,9.061c-1.91.956-3.267.77-6.163.956-.679.045-1.31.062-1.912.062.015-.865.092-1.573.092-1.789,0-.585-3.852-5.115-4.531-5.5-.337-.2-1.263-.386-2.742-1.033a29.1,29.1,0,0,1-6.119-3.775c-5.192-4.053-2.311-4.238-3.081-6.641-.77-2.42-1.541-8.291-.971-9.247.587-.971,2.034-1.942,3.082-4.052,1.065-2.111.4-3.082-.278-5.009s-3.374,1.927-3.374,1.927H976.01c-2.019,0-22.054-1.157-23.3-1.248s-7.907-1.833-8.184-3.282a52.9,52.9,0,0,1-.493-8.276,24.17,24.17,0,0,0-1.632-8.97c-.864-1.91-6.644-3.743-6.644-5.393,0-1.632,2.314-1.541,3.854-1.541s2.2-.865,2.311-4.038a18.271,18.271,0,0,0-1.449-7.89c-.971-2.42-2.7-8.105-2.4-9.448a22.419,22.419,0,0,0-.295-6.163c-.292-1.741-2.4-3.76-2.6-4.147a6.784,6.784,0,0,0-1.494-1.139c-.109-.077-.233-.154-.357-.23-.183-.109,4.07-2.574,5.224-3.931,1.157-1.34,1.157-4.221,1.157-5.192s1.742-3.852,2.311-4.424,3.854-5.977,4.052-8.105c.186-2.111,0-1.14,1.727-3.651a13.113,13.113,0,0,0,2.128-7.32c0-1.927-1.357-3.468-4.052-8.291s-2.514-3.654-2.514-5.4a5.28,5.28,0,0,1,.971-3.082,18.736,18.736,0,0,0,2.113-4.422,5.593,5.593,0,0,0,0-3.468s-4.808-.186-7.706-1.727c-2.881-1.541,0-1.741,0-1.741H918.7a10.253,10.253,0,0,1-5.4-1.154c-1.139-.77-.57-3.854.478-6.166s.109-3.267,0-5.393-1.248-3.669-2.019-5.98,1.357-4.422,1.942-5.393c.248-.416-.124-1.125-.617-1.865-.646-.956-1.509-1.987-1.509-2.482a9.873,9.873,0,0,1,.954-3.158c.587-1.541-.184-5.009-.77-5.779a23.594,23.594,0,0,1-1.541-4.038l3.483-3.483v-6.933a1.008,1.008,0,0,0-.508-.924l43.887-.617,26.337-.372a25.971,25.971,0,0,0,0-4.436,9.8,9.8,0,0,1,.971-5.209c.57-1.541,2.311-4.994,1.34-6.735-.954-1.741-1.724-6.733-1.724-7.32s3.265-3.267,3.666-5.207c.369-1.912-3.666-4.994,0-4.994a5.256,5.256,0,0,1,1.836.354c3.158,1.095,6.24,4.454,6.24,4.454a16.553,16.553,0,0,0,0,7.32c.971,3.468,1.172,4.424,2.712,6.364,1.541,1.912,1.727,5.965,1.727,6.936a53.13,53.13,0,0,0,2.125,7.5c.372.971,2.311.649,3.081,1.959s1.912,3.636,2.683,4.776c.771,1.172,4.823.4,5.393,1.541.587,1.172,2.512,5.209,2.512,5.209l5.4,2.5h7.5l107.921,7.8Z" transform="translate(164.542 173.408)" fill="#d8d8d8" stroke="#fff" stroke-linecap="round" stroke-linejoin="round" stroke-width="1"/>
    <path id="Caminho_80" data-name="Caminho 80" d="M1019.548,285.218a13.115,13.115,0,0,1-2.128,7.32c-1.727,2.512-1.541,1.541-1.727,3.651-.2,2.128-3.483,7.52-4.052,8.105s-2.311,3.453-2.311,4.424,0,3.852-1.157,5.192c-1.154,1.357-5.407,3.822-5.224,3.931a15.132,15.132,0,0,0-3.064-1.511c-1.635-.478-4.9-.585-6.056-.909a40.882,40.882,0,0,0-9.247-1.31c-3.76,0-2.789.77-4.823,1.248s-4.9-2.019-6.072-3.76c-1.142-1.727-3.267-3.173-4.625-4.716a.9.9,0,0,0-.168-.168c-.062-.062-.124-.107-.186-.168a.775.775,0,0,0-.2-.124,3.686,3.686,0,0,0-1.016-.493,4.058,4.058,0,0,0-.6-.186,4.163,4.163,0,0,0-.585-.139,3.2,3.2,0,0,0-.4-.077c-.154-.03-.307-.062-.446-.077-.186-.032-.372-.062-.54-.077-.23-.03-.446-.062-.646-.077-.6-.047-1.095-.094-1.372-.139a27.657,27.657,0,0,1-9.909-3.76c-3.961-2.7-4.238-4.238-4.625-5.487s-2.987-2.512-2.987-2.512-3.282,1.358-3.654,1.358a36.241,36.241,0,0,1-5.98-3.468,10.831,10.831,0,0,0-6.349-1.635c-1.355,0-3.575.372-4.622.478s-3.852-.585-6.75-1.925c-2.9-1.357-10.4-5.209-14.64-11.652s-3.852-7.04-5.779-10.508.292-7.8.679-8.754-.109-2.512-.386-4.053c-.03-.154-.077-.292-.121-.463,0-.015,0-.015-.015-.03a1.124,1.124,0,0,0-.094-.263c-.062-.154-.124-.307-.2-.478a3.69,3.69,0,0,0-.169-.384c-.186-.386-.386-.788-.617-1.219-.124-.245-.263-.508-.384-.77a16.2,16.2,0,0,1-1.2-2.943c-.771-2.7,1.357-4.439,2.034-5.393a2.894,2.894,0,0,0-.092-3.376c-.771-1.34-.107-2.311,0-3.267.092-.969,1.818-3.666,1.818-5.006,0-1.357-2.4-3.285-3.359-3.468-.971-.2-2.219,1.541-2.99,1.833s-4.531-.4-5.687-.679-8.675.186-11.464.572-7.119.77-7.119.77a11.709,11.709,0,0,0-2.326,1.385l-2.821-1.4s6.21-2.772,6.981-4.9c.77-2.11.956-5.393,2.883-5.965s8.274.2,8.861.971,2.9,3.084,4.038,3.267c1.172.186,6.564-1.925,6.564-1.925s1.541-1.927,2.5-1.741,1.724-1.343,2.495,0,5.4.4,5.98,0a8.518,8.518,0,0,0,2.5-4.808c.585-2.7-.369-5.009,2.311-5.4,2.713-.384,7.335,2.314,7.335,2.314s2.883,1.541,4.424.585,2.111-1.618,2.311-2.928.971-5.177,1.742-5.948a20.487,20.487,0,0,1,3.852-2.113s-.971-4.053,0-5.192a53.242,53.242,0,0,1,4.038-3.854,19.667,19.667,0,0,0,3.267-3.48c.771-1.343,6.75-2.883,7.335-2.883s11.358,2.512,11.358,2.512,4.424,4.625,5.009,5.764c.585,1.172,4.238,5.717,5.209,5.856a5.692,5.692,0,0,1,4.422,3.391c.971,2.512,7.506,4.469,7.506,4.469l4.253-2.529a4.5,4.5,0,0,1,2.559.218h.015a1.008,1.008,0,0,1,.508.924V212.2l-3.483,3.483a23.6,23.6,0,0,0,1.541,4.038c.587.77,1.357,4.238.77,5.779a9.872,9.872,0,0,0-.954,3.158c0,.5.862,1.526,1.509,2.482.493.741.865,1.449.617,1.865-.585.971-2.713,3.082-1.942,5.393s1.912,3.852,2.019,5.98,1.048,3.082,0,5.393-1.617,5.4-.478,6.166a10.252,10.252,0,0,0,5.4,1.154h20.032s-2.881.2,0,1.741c2.9,1.541,7.706,1.727,7.706,1.727a5.593,5.593,0,0,1,0,3.468,18.742,18.742,0,0,1-2.113,4.422,5.279,5.279,0,0,0-.971,3.081c0,1.741-.183.587,2.514,5.4S1019.548,283.29,1019.548,285.218Z" transform="translate(94.915 182.478)" fill="#d8d8d8" stroke="#fff" stroke-linecap="round" stroke-linejoin="round" stroke-width="1"/>
    <path id="Caminho_81" data-name="Caminho 81" d="M1198.544,190.489a47.975,47.975,0,0,0-5.393,3.852c-2.066,1.788-3.344,1.018-3.607,5.133s1.033,6.673-1.281,10.788-13.867,25.935-16.44,32.869-16.181,34.427-18.494,39.82-8.722,11.3-8.722,12.839,1.278,4.115,2.311,4.622,5.242,10.186,5.242,10.186a5.255,5.255,0,0,0-1.836-.354c-3.666,0,.369,3.082,0,4.994-.4,1.94-3.666,4.622-3.666,5.207s.77,5.578,1.724,7.32c.971,1.741-.771,5.195-1.34,6.735a9.8,9.8,0,0,0-.971,5.209,25.948,25.948,0,0,1,0,4.436l-26.337.372-43.887.617h-.015a4.5,4.5,0,0,0-2.559-.218l-4.253,2.529s-6.535-1.957-7.506-4.469a5.692,5.692,0,0,0-4.422-3.391c-.971-.139-4.625-4.684-5.209-5.856-.585-1.139-5.009-5.764-5.009-5.764s-10.788-2.512-11.358-2.512c-.585,0-6.564,1.541-7.335,2.883a19.664,19.664,0,0,1-3.267,3.48,53.269,53.269,0,0,0-4.038,3.854c-.971,1.139,0,5.192,0,5.192a20.49,20.49,0,0,0-3.852,2.113c-.77.77-1.541,4.622-1.742,5.948s-.77,1.957-2.311,2.928-4.424-.585-4.424-.585-4.622-2.7-7.335-2.314c-2.68.386-1.726,2.7-2.311,5.4a8.517,8.517,0,0,1-2.5,4.808c-.585.4-5.209,1.355-5.98,0s-1.541.2-2.495,0-2.5,1.741-2.5,1.741-5.393,2.11-6.564,1.925c-1.142-.183-3.453-2.5-4.038-3.267s-6.936-1.541-8.861-.971-2.113,3.854-2.883,5.965c-.77,2.128-6.981,4.9-6.981,4.9l-4.005-2s-9.817-3.468-16.381-6.549c-6.535-3.084-35.628-15.026-41.024-19.834s-16.18-9.646-19.076-12.143-15.6-4.238-21.375-5.009-28.308-5.965-31.207-7.506S800.11,308.3,800.11,308.3c.109-1.048,0-2.111,0-4.9s5.024-6.936,7.228-8.09c2.22-1.157,6.934-3.56,7.612-4.625s-3.651-6.455-3.082-8.675,4.053-5.871,4.716-6.441c.676-.587,1.355-3.084,1.355-5.5s1.727-5.873,2.019-7.506,3.267-2.7,4.531-3.574c1.248-.865,11.358-6.735,12.712-7.706,1.343-.954,4.038-3.944,5.195-4.9s3.852,0,5.779,0,5.779-1.833,7.9-2.311,8.568-.971,8.754-1.836,2.418-2.881,3.852-3.56c1.449-.676,5.393-1.355,5.886-1.063s1.543,2.6,2.405,3.852,4.914.77,6.933,0,3.669-10.109,4.333-13.1,6.163-28.217,6.933-33.04,2.9-23.116,3.56-25.72-.956-4.424-2.975-6.443-.292-4.439-.292-6.071-3.468-4.439-6.455-6.641a13.111,13.111,0,0,1-4.516-4.917c-1.449-2.217-1.357-14.731-1.263-15.41s4.915-2.019,5.593-2.465a16.388,16.388,0,0,1,3.651-.8s4.716-.971,5.118-.877c.369.107,3.56.971,5.393,1.647,1.818.664.832-7.01.832-7.01a10.085,10.085,0,0,0-.771-2.821c-.446-.585-4.176-1.925-5.393-2.311s-4.885.186-6.3-.186c-1.4-.4-2.435-2.063-3.205-3.282s-.508-4.746-.508-7.258c0-2.494,4.746-4.947,5.393-4.947.632,0,5.641.649,6.673.525s24.457.57,24.657.57,1.541-.77,1.34-1.216-1.665-1.665-2.11-2.512.508-1.08,1.216-1.665,2.958,1.541,3.792,2.125a4,4,0,0,0,3.082.124,9.792,9.792,0,0,0,1.6-2.125c.384-.572,3.143-.7,3.6-.7s1.788-1.618,2.314-2.757c.508-1.172,2.618-2,3.327-2.249.711-.263,1.541,1.479,1.541,1.479a55.064,55.064,0,0,0,.894,5.64c.4,1.095,3.483,1.541,3.854,2.125.4.57.585,5.841.585,6.611a42.475,42.475,0,0,0,.832,6.8c.384.909,2.249.523,2.512.523s3.651.448,4.746.647,4.053,4.038,4.947,5.195,4.1,3.468,4.87,4.5,6.812-.2,7.843-1.293,3.084-3.914,3.468-4.238a16.988,16.988,0,0,1,3.406-.956,21.006,21.006,0,0,1,2.881,2.314,6.737,6.737,0,0,1,.708,1.34s-2.049,2.311-2.049,3.666,2.435,1.219,2.435,1.219,2.187-1.357,2.373-1.989a9.983,9.983,0,0,1,1.68-3.4c.77-.711,2.621-.448,3-1.095s.525-1.989.847-2.5c.31-.525,2.113-1.741,2.945-2.636a12.585,12.585,0,0,1,3.575-2.249c.817-.324,2.65.832,3.235.77s3.716-3.406,4.625-4.439a1.634,1.634,0,0,1,1.925-.508s.894,1.541,1.541,1.6,1.481-1.4,2.19-2.311c.693-.894,4.421-3.406,4.991-4.746.587-1.343.2-6.549.4-7.2.186-.634,3.143,0,4.1.384s2.574.077,4.052-1.278,4.3-2.051,5.393-2.574c.416-.2.726-1.018.941-1.989a24.056,24.056,0,0,1,3.684,1.741s4.1,1.157,4.746,1.281a20.645,20.645,0,0,1,5.393,2.958c1.281,1.157.386,2.821-.646,5.254a21.618,21.618,0,0,0-1.278,5.534s5.9,4.746,6.671,5.13,2.574,4.746,3.223,5.779c.632,1.033-1.679,3.976-2.745,5.779s.047,4.114,0,5.517c-.045,1.419.941,2.45,1.065,4.5s2.311,9.123,4.885,11.434,1.665,5.009,1.665,6.287a5.85,5.85,0,0,1-2.051,4.238c-1.278.894-5.009,2.958-5.516,3.852-.525.894,3.468,2.435,5.779,3.592s4.622,4.5,4.87,4.885,2.958,4.622,3.468,5.269,1.417.248,3.342.248,2.435,2.958,3.468,3.6,2.311,1.281,2.958.634-.26-1.4-1.54-3.329-1.417-2.45-1.417-3.852a3.462,3.462,0,0,1,.894-2.7,3.627,3.627,0,0,0,1.033-3.344c-.262-1.8-1.419-3.082-.894-5.393.508-2.311,5.393-4.5,6.287-5.519s7.444,1.543,8.861,2.314,2.821,4.236,2.821,4.236,2.45,1.788,3.344,1.788a20.02,20.02,0,0,0,4.1-1.154c1.139-.386,3.1-1.927,2.834-2.945s-1.8-1.417-2.7-2.311,2.821-6.933,4.362-9.383,3.852-10.017,3.852-10.017c.493-1.464,4.392-1.818,9.017-1.679.661.015,1.34.045,2.034.077.183.015.384.015.585.03a1.193,1.193,0,0,0,.248.017c.522.03,1.063.059,1.588.107.307.03.632.047.954.077.371.032.74.062,1.095.092.617.062,1.231.124,1.818.186.245.032.508.047.741.077,2.063.216,3.914.463,5.3.649.23.03.446.059.647.092.124.015.23.03.339.045s.23.032.322.047.139.015.2.032c.109.015.216.03.31.045.493.062.755.109.755.109s-1.281,8.229,0,11.048,3.852,3.344,4.622,5.655.77,6.166,3.082,9.247a14.773,14.773,0,0,0,3.852,4.1c2.051,1.8,3.329,2.836,3.329,2.836h7.2a5.63,5.63,0,0,0,0,4.36c1.033,2.051,1.281,2.329,5.9,4.622,4.622,2.314,8.477,3.084,9.77,3.854s4.1-1.281,5.9,2.819,2.819,5.4,3.589,5.655,2.314,2.821,6.426,2.051a28.212,28.212,0,0,0,8.477-3.592Z" transform="translate(1.892 41.69)" fill="#d8d8d8" stroke="#fff" stroke-linecap="round" stroke-linejoin="round" stroke-width="1"/>
    <path id="Caminho_82" data-name="Caminho 82" d="M1173.818,243.06a10.6,10.6,0,0,0-1.541,4.625c0,.894.771,1.788,1.8,3.468s1.156,6.671,1.156,6.671-.094.248-.248.632a24.037,24.037,0,0,1-2.45,4.887c-1.3,1.677-3.344,2.958-7.2,5.655s-4.239,3.589-4.239,3.589-.186.154-.508.4a46.659,46.659,0,0,1-7.583,4.991c-3.344,1.543-3.592,3.468-3.592,3.468l-6.81,5.271s-2.96.508-4.362.647a16.383,16.383,0,0,0-5.393,1.927,37.547,37.547,0,0,0-3.993,4.484c-1.278,1.541-2.943.77-5.13,0s-1.665-2.559-2.048-3.329-3.223-.26-5.147,0a6.7,6.7,0,0,1-2.946-.139c-1.154-.121-1.541-1.154-1.541-3.976s-2.063-.121-2.573,0-5.656,3.205-7.58,5.655.523,4.362,1.679,5.4a9.33,9.33,0,0,1,2.311,3.852c.384,1.157-3.22,7.444-3.99,8.861a23.646,23.646,0,0,1-5.009,5.425c-1.157.679-4.362,2.143-5.517,2.143a13.569,13.569,0,0,1-2.821-.77c-.384,0-3.344,3.465-4.377,4.622a19.462,19.462,0,0,1-4.392,3.359c-.168.094-.322.171-.476.248-1.543.77-3.468-.525-4.117-.646s-3.976-.124-6.426-1.281-2.311-3.081-2.819-4.5,0-3.084,0-4.238-1.156-1.417-1.156-3.081-2.435-5.133-3.344-5.655c-.708-.4-2.311,1.694-3.126,2.541-.218.23-.387.369-.464.354-.386-.062-3.852,0-3.852,0a6.287,6.287,0,0,0,.971-2.958c.121-1.8.632-7.382.83-7.768s1.6-1.355,1.4-2.311c-.183-.971-1.216-4.053-1.216-4.5s.386-2.234-.124-3.143c-.522-.892-2.249-4.36-2.249-4.36a25.792,25.792,0,0,1-.647-4.687,5.509,5.509,0,0,1,2.064-4.236c1.157-1.095,2.7-1.541,3.267-4.114.587-2.574,3.592-7.32,4.238-9.956a29.266,29.266,0,0,0,.971-5.841c.062-1.6,1.34-3.468,2.5-4.622a45.5,45.5,0,0,1,3.99-3.205,14.732,14.732,0,0,1,1.34-.909c.448-.186,7.32-1.927,10.34-3.713,3.022-1.8,6.227-5.779,8.338-6.936,2.128-1.157,5.333-2.9,6.3-4.377.954-1.479.708-2.494,2.881-3.205s6.1-1.216,6.425-.585a19.139,19.139,0,0,0,1.479,2.063,5.555,5.555,0,0,0,5.071.894c2.435-.954,4.038-2.494,5.393-2.571s3.468,1.03,4.625-.448,2.5-3.02,2.819-4.362,1.157-3.666.847-4.622-.909-2.373-2.187-2.636a7.7,7.7,0,0,1-3.081-1.34c-.526-.463-2.373-.585-2.373-2.125s-.525-9.894.57-11.62,3.144-2.636,4.115-3.592c.956-.971,1.788-1.863,1.865-3.082a13.2,13.2,0,0,0-1.3-5.593,21.579,21.579,0,0,1-2.312-4.5c-.248-1.139-.694-2.943.446-4.546,1.172-1.618,1.481-2.125,1.62-3.082.121-.971-1.741-2.512-2.066-3.991a18.718,18.718,0,0,0-.508-1.989s2.574-3.082,3.914-4.947c1.355-1.848,2.76-3.852,2.76-5.331s-1.789-1.989,0-4.362a36.543,36.543,0,0,1,3.99-4.36s4.159-.525,6.411-2.19a52.731,52.731,0,0,0,5.269-3.914c1.281-1.278,4.053-3.344,4.685-5.779.186-.676.371-1.556.572-2.465.154.045.322.107.508.168.168.047.369.109.57.171.062.015.124.03.2.045l.508.139c.864.233,1.865.478,2.866.708.386.079.771.171,1.157.248a.1.1,0,0,1,.062.015c.107.015.216.047.308.062.047.015.094.015.139.032.448.077.894.154,1.31.23.387.062.741.124,1.078.168a9.346,9.346,0,0,0,1.883.032,5.428,5.428,0,0,0,.708-.047c.184-.015.384-.03.585-.047a29.437,29.437,0,0,1-.57,3.114,82.605,82.605,0,0,0-1.278,11.558,15.88,15.88,0,0,0,1.786,6.795c.771,1.679,2.7,4.238,3.993,6.688,1.279,2.435-1.156,5.517-2.189,7.706a20.78,20.78,0,0,0-1.278,7.444c.122.647.245,4.5,1.665,5.9,1.417,1.419,4.746,4.5,5.655,6.166s-.139,5.145-.525,7.459a14.867,14.867,0,0,0,.77,7.32c.771,1.541,1.679,2.556,1.679,4.87s.894,5.915,2.435,10.154,4.5,2.311,6.166,4.238-1.033,9.247-1.419,10.141a27.624,27.624,0,0,1-2.063,3.158C1174.559,241.92,1174.157,242.522,1173.818,243.06Z" transform="translate(375.398 111.63)" fill="#d8d8d8" stroke="#fff" stroke-linecap="round" stroke-linejoin="round" stroke-width="1"/>
  </g>
</svg>
