<svg xmlns="http://www.w3.org/2000/svg" width="72.825" height="52.62" viewBox="0 0 72.825 52.62">
  <g id="menu" transform="translate(-106 -282.507)">
    <path id="Caminho_15" data-name="Caminho 15" d="M106,407.207c.646-1.83,1.982-2.422,3.859-2.42q32.737.046,65.473.02a3.12,3.12,0,0,1,3.352,2.179,3.035,3.035,0,0,1-2.724,3.9c-.283.02-.568.008-.853.008q-32.665,0-65.331.02c-1.867,0-3.147-.637-3.777-2.427Z" transform="translate(0 -99.046)" fill="#fff"/>
    <path id="Caminho_16" data-name="Caminho 16" d="M106,284.835a6.711,6.711,0,0,1,1.066-1.537,5.475,5.475,0,0,1,1.713-.747,2.474,2.474,0,0,1,.777-.027q32.847,0,65.694.006a5.167,5.167,0,0,1,1.539.177,2.981,2.981,0,0,1,2.009,3.227,3.027,3.027,0,0,1-2.836,2.621c-.307.017-.616.012-.924.012q-32.563,0-65.125.027c-1.88,0-3.209-.551-3.913-2.338Z" fill="#fff"/>
    <path id="Caminho_17" data-name="Caminho 17" d="M106,529.808c.593-1.815,1.857-2.46,3.738-2.457q32.876.05,65.752.022a3.024,3.024,0,0,1,.658,6.011,11.439,11.439,0,0,1-1.207.04q-32.521,0-65.042.025c-1.877,0-3.212-.562-3.9-2.361Z" transform="translate(0 -198.323)" fill="#fff"/>
  </g>
</svg>
