<svg id="seta-baixo" xmlns="http://www.w3.org/2000/svg" width="50.219" height="27.428" viewBox="0 0 50.219 27.428">
  <path id="Caminho_18" data-name="Caminho 18" d="M191.139,371.443a9.465,9.465,0,0,1,.638-.823q10.133-10.146,20.289-20.269a3.748,3.748,0,0,1,1.551-.92,2.132,2.132,0,0,1,2.3,1.065,2.275,2.275,0,0,1-.154,2.547,6.218,6.218,0,0,1-.536.572q-11.071,11.074-22.145,22.146c-1.379,1.379-2.551,1.381-3.922.01q-11.149-11.148-22.3-22.3c-1.424-1.425-.992-3.522.823-4.01a2.232,2.232,0,0,1,2.277.661l3.835,3.833q8.349,8.348,16.7,16.7C190.681,370.84,190.829,371.06,191.139,371.443Z" transform="translate(-166.018 -349.369)" fill="#fff"/>
</svg>
