<svg xmlns="http://www.w3.org/2000/svg" width="41.525" height="41.543" viewBox="0 0 41.525 41.543">
  <g id="ver-mais" transform="translate(-277.082 -399.954)">
    <path id="Caminho_52" data-name="Caminho 52" d="M296.626,441.5c-.787-.106-1.58-.184-2.361-.323a20.393,20.393,0,0,1-12.01-6.757A20.743,20.743,0,1,1,318.137,416.4c.191.881.266,1.787.4,2.682.021.144.05.287.075.43v2.434c-.033.292-.067.584-.1.876a20.83,20.83,0,0,1-17.089,18.352c-.781.139-1.573.217-2.36.323Zm1.225-39.93A19.162,19.162,0,1,0,317,420.737,19.17,19.17,0,0,0,297.851,401.567Z" fill="#fff"/>
    <path id="Caminho_53" data-name="Caminho 53" d="M298.646,419.925h8.738c.094,0,.189,0,.284,0,.571.016.94.321.952.787s-.37.817-.96.818q-4.238.008-8.476,0h-.538v9.094c0,.094,0,.189,0,.284-.01.622-.332,1.012-.824,1s-.781-.389-.782-1q0-4.422,0-8.843v-.535h-8.852c-.729,0-1.135-.3-1.122-.82s.4-.787,1.114-.788h8.86v-8.437c0-.742.28-1.136.8-1.136s.8.394.8,1.136q0,3.975,0,7.95Z" fill="#fff"/>
  </g>
</svg>
